<svg width="32" height="32" viewBox="0 0 32 32" fill="none" xmlns="http://www.w3.org/2000/svg">
<path d="M24 17C19.04 17 15 12.96 15 8C15 7.45 14.55 7 14 7C13.45 7 13 7.45 13 8C13 12.96 8.96 17 4 17C3.45 17 3 17.45 3 18C3 18.55 3.45 19 4 19C8.96 19 13 23.04 13 28C13 28.55 13.45 29 14 29C14.55 29 15 28.55 15 28C15 23.04 19.04 19 24 19C24.55 19 25 18.55 25 18C25 17.45 24.55 17 24 17ZM28 7.5C26.07 7.5 24.5 5.93 24.5 4C24.5 3.45 24.05 3 23.5 3C22.95 3 22.5 3.45 22.5 4C22.5 5.93 20.93 7.5 19 7.5C18.45 7.5 18 7.95 18 8.5C18 9.05 18.45 9.5 19 9.5C20.93 9.5 22.5 11.07 22.5 13C22.5 13.55 22.95 14 23.5 14C24.05 14 24.5 13.55 24.5 13C24.5 11.07 26.07 9.5 28 9.5C28.55 9.5 29 9.05 29 8.5C29 7.95 28.55 7.5 28 7.5Z" fill="white"/>
</svg>
