<svg width="19" height="20" viewBox="0 0 19 20" fill="none" xmlns="http://www.w3.org/2000/svg">
<path fill-rule="evenodd" clip-rule="evenodd" d="M9.12391 0C11.5622 0 13.5765 1.85789 13.8248 4.23407L13.8942 4.23489C15.2468 4.23489 16.8914 5.13321 17.4464 7.6528L18.1824 13.3496C18.4464 15.1882 18.1162 16.6631 17.1992 17.7209C16.2869 18.7731 14.8428 19.33 13.0229 19.33H5.23557C3.2365 19.33 1.84378 18.8403 0.977174 17.8338C0.106838 16.8244 -0.184206 15.3104 0.112435 13.3347L0.836316 7.71343C1.31206 5.13601 3.0518 4.23489 4.39882 4.23489C4.5151 3.16257 4.99863 2.14245 5.7657 1.3778C6.64723 0.501866 7.86271 0 9.10432 0H9.12391ZM13.8942 5.63414H4.39882C3.98744 5.63414 2.61244 5.80019 2.21785 7.93078L1.4977 13.5278C1.26355 15.0978 1.44453 16.234 2.03688 16.9215C2.62176 17.6006 3.66841 17.9308 5.23557 17.9308H13.0229C14.0005 17.9308 15.3354 17.7358 16.1414 16.8049C16.7813 16.067 17.0014 14.9681 16.7962 13.5381L16.0695 7.89254C15.7598 6.50168 14.9427 5.63414 13.8942 5.63414ZM11.8445 8.23125C12.2307 8.23125 12.5656 8.54468 12.5656 8.93088C12.5656 9.31707 12.2736 9.6305 11.8874 9.6305H11.8445C11.4583 9.6305 11.1449 9.31707 11.1449 8.93088C11.1449 8.54468 11.4583 8.23125 11.8445 8.23125ZM6.406 8.23125C6.79219 8.23125 7.12708 8.54468 7.12708 8.93088C7.12708 9.31707 6.83417 9.6305 6.44798 9.6305H6.406C6.0198 9.6305 5.70637 9.31707 5.70637 8.93088C5.70637 8.54468 6.0198 8.23125 6.406 8.23125ZM9.12111 1.39925H9.10712C8.22932 1.39925 7.37391 1.7528 6.75357 2.3694C6.24826 2.87245 5.91777 3.53376 5.81086 4.23445L12.4147 4.23471C12.175 2.63188 10.7889 1.39925 9.12111 1.39925Z" fill="#78828A"/>
</svg>
