<svg width="23" height="23" viewBox="0 0 23 23" fill="none" xmlns="http://www.w3.org/2000/svg">
<path d="M8.52412 19.3787V16.5263C8.52412 15.7982 9.1187 15.2079 9.85216 15.2079H12.5333C12.8855 15.2079 13.2233 15.3468 13.4724 15.5941C13.7214 15.8413 13.8613 16.1766 13.8613 16.5263V19.3787C13.8591 19.6814 13.9787 19.9724 14.1935 20.1873C14.4084 20.4021 14.7007 20.5229 15.0056 20.5229H16.8348C17.6891 20.5251 18.5092 20.1898 19.114 19.5908C19.7189 18.9919 20.0588 18.1787 20.0588 17.3306V9.2047C20.0588 8.51963 19.7529 7.86979 19.2236 7.43027L13.001 2.49669C11.9186 1.63166 10.3677 1.65959 9.3176 2.56302L3.23702 7.43027C2.68267 7.85684 2.35133 8.5086 2.33496 9.2047V17.3223C2.33496 19.09 3.77841 20.5229 5.559 20.5229H7.34643C7.97976 20.5229 8.49447 20.0157 8.49906 19.3869L8.52412 19.3787Z" fill="#318615"/>
</svg>
