<svg width="14" height="14" viewBox="0 0 14 14" fill="none" xmlns="http://www.w3.org/2000/svg">
<g clip-path="url(#clip0_33506_6880)">
<path d="M12.0286 4.92884C11.4161 2.23384 9.0653 1.02051 7.0003 1.02051C7.0003 1.02051 7.0003 1.02051 6.99447 1.02051C4.9353 1.02051 2.57863 2.22801 1.96613 4.92301C1.28363 7.93301 3.12697 10.4822 4.7953 12.0863C5.41363 12.6813 6.20697 12.9788 7.0003 12.9788C7.79363 12.9788 8.58697 12.6813 9.19947 12.0863C10.8678 10.4822 12.7111 7.93884 12.0286 4.92884ZM7.0003 7.85134C5.9853 7.85134 5.1628 7.02884 5.1628 6.01384C5.1628 4.99884 5.9853 4.17634 7.0003 4.17634C8.0153 4.17634 8.8378 4.99884 8.8378 6.01384C8.8378 7.02884 8.0153 7.85134 7.0003 7.85134Z" fill="#318615"/>
</g>
<defs>
<clipPath id="clip0_33506_6880">
<rect width="14" height="14" fill="white"/>
</clipPath>
</defs>
</svg>
