<svg width="22" height="22" viewBox="0 0 22 22" fill="none" xmlns="http://www.w3.org/2000/svg">
<path d="M7.79134 17.4163H7.33301C3.66634 17.4163 1.83301 16.4997 1.83301 11.9163V7.33301C1.83301 3.66634 3.66634 1.83301 7.33301 1.83301H14.6663C18.333 1.83301 20.1663 3.66634 20.1663 7.33301V11.9163C20.1663 15.583 18.333 17.4163 14.6663 17.4163H14.208C13.9238 17.4163 13.6488 17.5538 13.4747 17.783L12.0997 19.6163C11.4947 20.423 10.5047 20.423 9.89967 19.6163L8.52467 17.783C8.37801 17.5813 8.03884 17.4163 7.79134 17.4163Z" stroke="#111111" stroke-width="1.5" stroke-miterlimit="10" stroke-linecap="round" stroke-linejoin="round"/>
<path d="M6.41699 7.33301H15.5837" stroke="#111111" stroke-width="1.5" stroke-linecap="round" stroke-linejoin="round"/>
<path d="M6.41699 11.917H11.917" stroke="#111111" stroke-width="1.5" stroke-linecap="round" stroke-linejoin="round"/>
</svg>
