<svg width="12" height="12" viewBox="0 0 12 12" fill="none" xmlns="http://www.w3.org/2000/svg">
<path fill-rule="evenodd" clip-rule="evenodd" d="M5.64623 1.65405C5.44936 1.91112 5.22715 2.30775 4.90438 2.88678L4.74053 3.18071C4.73066 3.19842 4.7209 3.21597 4.71125 3.23335C4.56088 3.50395 4.43397 3.73235 4.22947 3.88759C4.02276 4.04451 3.77077 4.10113 3.47792 4.16695C3.4591 4.17118 3.44011 4.17544 3.42095 4.17978L3.10278 4.25177C2.47512 4.39378 2.04812 4.4915 1.75565 4.60675C1.47025 4.71923 1.41001 4.81138 1.38705 4.88522C1.36281 4.96315 1.36209 5.08236 1.53271 5.3534C1.70589 5.62849 1.99804 5.97161 2.4253 6.47124L2.64221 6.72489C2.65482 6.73963 2.66731 6.7542 2.67968 6.76863C2.88118 7.00368 3.0492 7.19967 3.12627 7.4475C3.20287 7.69384 3.17748 7.9527 3.1467 8.26656C3.14481 8.28581 3.1429 8.30527 3.141 8.32495L3.1082 8.66337C3.04366 9.32946 3.00013 9.78809 3.01485 10.1185C3.02954 10.4482 3.09919 10.5394 3.15457 10.5814C3.20382 10.6188 3.29487 10.6602 3.59148 10.5752C3.89292 10.4888 4.29354 10.3056 4.88125 10.035L5.17916 9.89779C5.19751 9.88934 5.21568 9.88094 5.23369 9.87261C5.50609 9.74668 5.74241 9.63742 6.00025 9.63742C6.25809 9.63742 6.49441 9.74668 6.76681 9.87261C6.78482 9.88094 6.803 9.88934 6.82135 9.89779L7.11925 10.035C7.70696 10.3056 8.10759 10.4888 8.40902 10.5752C8.70564 10.6602 8.79668 10.6188 8.84594 10.5814C8.90131 10.5394 8.97096 10.4482 8.98565 10.1185C9.00037 9.78808 8.95685 9.32946 8.8923 8.66337L8.85951 8.32495C8.8576 8.30527 8.85569 8.28582 8.85381 8.26657C8.82302 7.9527 8.79763 7.69385 8.87424 7.4475C8.95131 7.19967 9.11932 7.00368 9.32083 6.76862C9.3332 6.7542 9.34569 6.73963 9.35829 6.72489L9.5752 6.47124C10.0025 5.97161 10.2946 5.62849 10.4678 5.3534C10.6384 5.08236 10.6377 4.96315 10.6135 4.88522C10.5905 4.81138 10.5302 4.71923 10.2448 4.60675C9.95238 4.4915 9.52539 4.39378 8.89773 4.25177L8.57955 4.17978C8.5604 4.17544 8.54141 4.17118 8.52258 4.16695C8.22973 4.10113 7.97774 4.04451 7.77104 3.88759C7.56654 3.73235 7.43962 3.50395 7.28926 3.23335C7.2796 3.21597 7.26985 3.19842 7.25997 3.1807L7.09612 2.88678C6.77335 2.30775 6.55114 1.91112 6.35427 1.65405C6.15759 1.39722 6.05713 1.375 6.00025 1.375C5.94337 1.375 5.84291 1.39722 5.64623 1.65405ZM5.05078 1.19805C5.28912 0.886816 5.5837 0.625 6.00025 0.625C6.4168 0.625 6.71139 0.886815 6.94973 1.19805C7.18392 1.50386 7.43226 1.94938 7.73577 2.49388L7.91506 2.81553C8.11133 3.16762 8.16154 3.24241 8.22452 3.29022C8.28514 3.33624 8.36335 3.3619 8.74506 3.44827L9.09507 3.52746C9.68289 3.66044 10.1672 3.76999 10.5198 3.90898C10.8859 4.05326 11.2063 4.2659 11.3296 4.66251C11.4517 5.05504 11.3145 5.41616 11.1025 5.75295C10.8965 6.08019 10.5675 6.46492 10.1656 6.93489L9.92829 7.21233C9.66979 7.51462 9.61579 7.58858 9.59041 7.67021C9.56453 7.75344 9.56696 7.84961 9.60601 8.25261L9.64178 8.62167C9.70265 9.24968 9.75228 9.76181 9.73491 10.1518C9.71722 10.5488 9.62706 10.9301 9.29942 11.1788C8.96566 11.4322 8.57732 11.4036 8.20244 11.2962C7.83893 11.192 7.38577 10.9834 6.8355 10.73L6.50767 10.579C6.149 10.4139 6.07222 10.3874 6.00025 10.3874C5.92829 10.3874 5.8515 10.4139 5.49283 10.579L5.165 10.73C4.61473 10.9834 4.16157 11.192 3.79807 11.2962C3.42318 11.4036 3.03484 11.4322 2.70108 11.1788C2.37345 10.9301 2.28328 10.5488 2.26559 10.1518C2.24822 9.76181 2.29786 9.24967 2.35873 8.62166L2.39449 8.25261C2.43354 7.84961 2.43598 7.75344 2.4101 7.67021C2.38471 7.58858 2.33071 7.51462 2.07221 7.21233L1.83497 6.93491C1.43304 6.46493 1.10401 6.08019 0.898007 5.75295C0.685991 5.41616 0.548813 5.05504 0.670877 4.66251C0.794212 4.2659 1.11458 4.05326 1.48067 3.90898C1.83335 3.76999 2.31761 3.66044 2.90543 3.52746L2.93726 3.52026L3.25544 3.44827C3.63716 3.3619 3.71536 3.33624 3.77598 3.29022C3.83896 3.24241 3.88917 3.16762 4.08544 2.81553L4.26474 2.49388C4.56825 1.94938 4.81658 1.50386 5.05078 1.19805Z" fill="#FACC15"/>
</svg>
