<svg width="23" height="23" viewBox="0 0 23 23" fill="none" xmlns="http://www.w3.org/2000/svg">
<path fill-rule="evenodd" clip-rule="evenodd" d="M18.5066 16.971C18.5066 20.0456 14.2902 20.4011 11.1195 20.4011L10.8926 20.4009C8.87245 20.396 3.73047 20.2684 3.73047 16.9524C3.73047 13.9405 7.77744 13.538 10.924 13.5228L11.3464 13.5225C13.3663 13.5274 18.5066 13.655 18.5066 16.971ZM11.1195 14.9216C7.14465 14.9216 5.12972 15.6044 5.12972 16.9524C5.12972 18.3124 7.14465 19.0018 11.1195 19.0018C15.0933 19.0018 17.1073 18.319 17.1073 16.971C17.1073 15.6109 15.0933 14.9216 11.1195 14.9216ZM11.1195 1.86523C13.8508 1.86523 16.0719 4.08725 16.0719 6.81859C16.0719 9.54994 13.8508 11.771 11.1195 11.771H11.0896C8.36386 11.7626 6.15584 9.53967 6.16514 6.81579C6.16514 4.08725 8.38719 1.86523 11.1195 1.86523ZM11.1195 3.19732C9.12226 3.19732 7.49724 4.82139 7.49724 6.81859C7.49073 8.80926 9.1036 10.4324 11.0924 10.4399L11.1195 11.1059V10.4399C13.1157 10.4399 14.7398 8.81486 14.7398 6.81859C14.7398 4.82139 13.1157 3.19732 11.1195 3.19732Z" fill="#78828A"/>
</svg>
