<svg width="295" height="133" viewBox="0 0 295 133" fill="none" xmlns="http://www.w3.org/2000/svg">
<rect y="8.51465" width="295" height="124" rx="10" fill="url(#paint0_linear_33506_5510)"/>
<path d="M17.44 47.5146V32.6146H27.38V35.0146H20.16V39.1346H26.48V41.5346H20.16V47.5146H17.44ZM27.9333 47.5146V36.6346H30.3933V39.0546L30.1933 38.6946C30.4466 37.8813 30.8399 37.3146 31.3733 36.9946C31.9199 36.6746 32.5733 36.5146 33.3333 36.5146H33.9733V38.8346H33.0333C32.2866 38.8346 31.6866 39.068 31.2333 39.5346C30.7799 39.988 30.5533 40.628 30.5533 41.4546V47.5146H27.9333ZM40.1738 47.7546C39.0538 47.7546 38.0738 47.5013 37.2338 46.9946C36.3938 46.488 35.7404 45.8013 35.2738 44.9346C34.8071 44.068 34.5738 43.108 34.5738 42.0546C34.5738 40.9613 34.8071 39.9946 35.2738 39.1546C35.7538 38.3013 36.4004 37.628 37.2138 37.1346C38.0404 36.6413 38.9604 36.3946 39.9738 36.3946C40.8271 36.3946 41.5738 36.5346 42.2138 36.8146C42.8671 37.0946 43.4204 37.4813 43.8738 37.9746C44.3271 38.468 44.6738 39.0346 44.9138 39.6746C45.1538 40.3013 45.2738 40.9813 45.2738 41.7146C45.2738 41.9013 45.2604 42.0946 45.2338 42.2946C45.2204 42.4946 45.1871 42.668 45.1338 42.8146H36.7338V40.8146H43.6538L42.4138 41.7546C42.5338 41.1413 42.5004 40.5946 42.3138 40.1146C42.1404 39.6346 41.8471 39.2546 41.4338 38.9746C41.0338 38.6946 40.5471 38.5546 39.9738 38.5546C39.4271 38.5546 38.9404 38.6946 38.5138 38.9746C38.0871 39.2413 37.7604 39.6413 37.5338 40.1746C37.3204 40.6946 37.2404 41.328 37.2938 42.0746C37.2404 42.7413 37.3271 43.3346 37.5538 43.8546C37.7938 44.3613 38.1404 44.7546 38.5938 45.0346C39.0604 45.3146 39.5938 45.4546 40.1938 45.4546C40.7938 45.4546 41.3004 45.328 41.7138 45.0746C42.1404 44.8213 42.4738 44.4813 42.7138 44.0546L44.8338 45.0946C44.6204 45.6146 44.2871 46.0746 43.8338 46.4746C43.3804 46.8746 42.8404 47.188 42.2138 47.4146C41.6004 47.6413 40.9204 47.7546 40.1738 47.7546ZM50.9998 47.7546C49.8398 47.7546 48.8265 47.4813 47.9598 46.9346C47.1065 46.3746 46.5198 45.6213 46.1998 44.6746L48.1598 43.7346C48.4398 44.348 48.8265 44.828 49.3198 45.1746C49.8265 45.5213 50.3865 45.6946 50.9998 45.6946C51.4798 45.6946 51.8598 45.588 52.1398 45.3746C52.4198 45.1613 52.5598 44.8813 52.5598 44.5346C52.5598 44.3213 52.4998 44.148 52.3798 44.0146C52.2732 43.868 52.1198 43.748 51.9198 43.6546C51.7332 43.548 51.5265 43.4613 51.2998 43.3946L49.5198 42.8946C48.5998 42.628 47.8998 42.2213 47.4198 41.6746C46.9532 41.128 46.7198 40.4813 46.7198 39.7346C46.7198 39.068 46.8865 38.488 47.2198 37.9946C47.5665 37.488 48.0398 37.0946 48.6398 36.8146C49.2532 36.5346 49.9532 36.3946 50.7398 36.3946C51.7665 36.3946 52.6732 36.6413 53.4598 37.1346C54.2465 37.628 54.8065 38.3213 55.1398 39.2146L53.1398 40.1546C52.9532 39.6613 52.6398 39.268 52.1998 38.9746C51.7598 38.6813 51.2665 38.5346 50.7198 38.5346C50.2798 38.5346 49.9332 38.6346 49.6798 38.8346C49.4265 39.0346 49.2998 39.2946 49.2998 39.6146C49.2998 39.8146 49.3532 39.988 49.4598 40.1346C49.5665 40.2813 49.7132 40.4013 49.8998 40.4946C50.0998 40.588 50.3265 40.6746 50.5798 40.7546L52.3198 41.2746C53.2132 41.5413 53.8998 41.9413 54.3798 42.4746C54.8732 43.008 55.1198 43.6613 55.1198 44.4346C55.1198 45.088 54.9465 45.668 54.5998 46.1746C54.2532 46.668 53.7732 47.0546 53.1598 47.3346C52.5465 47.6146 51.8265 47.7546 50.9998 47.7546ZM56.7333 47.5146V32.3746H59.3533V38.7746L58.9933 38.3946C59.2466 37.7413 59.6599 37.248 60.2333 36.9146C60.8199 36.568 61.4999 36.3946 62.2733 36.3946C63.0733 36.3946 63.78 36.568 64.3933 36.9146C65.02 37.2613 65.5066 37.748 65.8533 38.3746C66.2 38.988 66.3733 39.7013 66.3733 40.5146V47.5146H63.7533V41.1346C63.7533 40.6546 63.66 40.2413 63.4733 39.8946C63.2866 39.548 63.0266 39.2813 62.6933 39.0946C62.3733 38.8946 61.9933 38.7946 61.5533 38.7946C61.1266 38.7946 60.7466 38.8946 60.4133 39.0946C60.0799 39.2813 59.8199 39.548 59.6333 39.8946C59.4466 40.2413 59.3533 40.6546 59.3533 41.1346V47.5146H56.7333ZM78.6234 47.7546C77.5568 47.7546 76.5701 47.5613 75.6634 47.1746C74.7568 46.788 73.9634 46.248 73.2834 45.5546C72.6034 44.8613 72.0701 44.048 71.6834 43.1146C71.3101 42.1813 71.1234 41.1613 71.1234 40.0546C71.1234 38.948 71.3034 37.928 71.6634 36.9946C72.0368 36.048 72.5568 35.2346 73.2234 34.5546C73.9034 33.8613 74.6968 33.328 75.6034 32.9546C76.5101 32.568 77.4968 32.3746 78.5634 32.3746C79.6301 32.3746 80.5834 32.5546 81.4234 32.9146C82.2768 33.2746 82.9968 33.7546 83.5834 34.3546C84.1701 34.9413 84.5901 35.588 84.8434 36.2946L82.4234 37.4546C82.1434 36.6813 81.6701 36.0546 81.0034 35.5746C80.3368 35.0946 79.5234 34.8546 78.5634 34.8546C77.6301 34.8546 76.8034 35.0746 76.0834 35.5146C75.3768 35.9546 74.8234 36.5613 74.4234 37.3346C74.0368 38.108 73.8434 39.0146 73.8434 40.0546C73.8434 41.0946 74.0434 42.008 74.4434 42.7946C74.8568 43.568 75.4234 44.1746 76.1434 44.6146C76.8634 45.0546 77.6901 45.2746 78.6234 45.2746C79.3834 45.2746 80.0834 45.128 80.7234 44.8346C81.3634 44.528 81.8768 44.1013 82.2634 43.5546C82.6501 42.9946 82.8434 42.3346 82.8434 41.5746V40.4346L84.0834 41.5146H78.5634V39.2146H85.5634V40.7146C85.5634 41.8613 85.3701 42.8746 84.9834 43.7546C84.5968 44.6346 84.0701 45.3746 83.4034 45.9746C82.7501 46.5613 82.0101 47.008 81.1834 47.3146C80.3568 47.608 79.5034 47.7546 78.6234 47.7546ZM87.0958 47.5146V36.6346H89.5558V39.0546L89.3558 38.6946C89.6091 37.8813 90.0024 37.3146 90.5358 36.9946C91.0824 36.6746 91.7358 36.5146 92.4958 36.5146H93.1358V38.8346H92.1958C91.4491 38.8346 90.8491 39.068 90.3958 39.5346C89.9424 39.988 89.7158 40.628 89.7158 41.4546V47.5146H87.0958ZM99.4963 47.7546C98.4296 47.7546 97.4563 47.508 96.5763 47.0146C95.7096 46.5213 95.0163 45.848 94.4963 44.9946C93.9896 44.1413 93.7363 43.168 93.7363 42.0746C93.7363 40.9813 93.9896 40.008 94.4963 39.1546C95.0163 38.3013 95.7096 37.628 96.5763 37.1346C97.4429 36.6413 98.4163 36.3946 99.4963 36.3946C100.563 36.3946 101.53 36.6413 102.396 37.1346C103.263 37.628 103.95 38.3013 104.456 39.1546C104.976 39.9946 105.236 40.968 105.236 42.0746C105.236 43.168 104.976 44.1413 104.456 44.9946C103.936 45.848 103.243 46.5213 102.376 47.0146C101.51 47.508 100.55 47.7546 99.4963 47.7546ZM99.4963 45.3546C100.083 45.3546 100.596 45.2146 101.036 44.9346C101.49 44.6546 101.843 44.268 102.096 43.7746C102.363 43.268 102.496 42.7013 102.496 42.0746C102.496 41.4346 102.363 40.8746 102.096 40.3946C101.843 39.9013 101.49 39.5146 101.036 39.2346C100.596 38.9413 100.083 38.7946 99.4963 38.7946C98.8963 38.7946 98.3696 38.9413 97.9163 39.2346C97.4629 39.5146 97.1029 39.9013 96.8363 40.3946C96.5829 40.8746 96.4563 41.4346 96.4563 42.0746C96.4563 42.7013 96.5829 43.268 96.8363 43.7746C97.1029 44.268 97.4629 44.6546 97.9163 44.9346C98.3696 45.2146 98.8963 45.3546 99.4963 45.3546ZM112.063 47.7546C110.983 47.7546 110.01 47.508 109.143 47.0146C108.29 46.508 107.616 45.828 107.123 44.9746C106.63 44.108 106.383 43.1346 106.383 42.0546C106.383 40.9746 106.63 40.008 107.123 39.1546C107.616 38.3013 108.29 37.628 109.143 37.1346C110.01 36.6413 110.983 36.3946 112.063 36.3946C112.836 36.3946 113.556 36.5346 114.223 36.8146C114.89 37.0813 115.463 37.4546 115.943 37.9346C116.436 38.4013 116.79 38.9613 117.003 39.6146L114.703 40.6146C114.503 40.068 114.163 39.628 113.683 39.2946C113.216 38.9613 112.676 38.7946 112.063 38.7946C111.49 38.7946 110.976 38.9346 110.523 39.2146C110.083 39.4946 109.736 39.8813 109.483 40.3746C109.23 40.868 109.103 41.4346 109.103 42.0746C109.103 42.7146 109.23 43.2813 109.483 43.7746C109.736 44.268 110.083 44.6546 110.523 44.9346C110.976 45.2146 111.49 45.3546 112.063 45.3546C112.69 45.3546 113.236 45.188 113.703 44.8546C114.17 44.5213 114.503 44.0746 114.703 43.5146L117.003 44.5546C116.79 45.168 116.443 45.7213 115.963 46.2146C115.483 46.6946 114.91 47.0746 114.243 47.3546C113.576 47.6213 112.85 47.7546 112.063 47.7546ZM123.751 47.7546C122.631 47.7546 121.651 47.5013 120.811 46.9946C119.971 46.488 119.318 45.8013 118.851 44.9346C118.384 44.068 118.151 43.108 118.151 42.0546C118.151 40.9613 118.384 39.9946 118.851 39.1546C119.331 38.3013 119.978 37.628 120.791 37.1346C121.618 36.6413 122.538 36.3946 123.551 36.3946C124.404 36.3946 125.151 36.5346 125.791 36.8146C126.444 37.0946 126.998 37.4813 127.451 37.9746C127.904 38.468 128.251 39.0346 128.491 39.6746C128.731 40.3013 128.851 40.9813 128.851 41.7146C128.851 41.9013 128.838 42.0946 128.811 42.2946C128.798 42.4946 128.764 42.668 128.711 42.8146H120.311V40.8146H127.231L125.991 41.7546C126.111 41.1413 126.078 40.5946 125.891 40.1146C125.718 39.6346 125.424 39.2546 125.011 38.9746C124.611 38.6946 124.124 38.5546 123.551 38.5546C123.004 38.5546 122.518 38.6946 122.091 38.9746C121.664 39.2413 121.338 39.6413 121.111 40.1746C120.898 40.6946 120.818 41.328 120.871 42.0746C120.818 42.7413 120.904 43.3346 121.131 43.8546C121.371 44.3613 121.718 44.7546 122.171 45.0346C122.638 45.3146 123.171 45.4546 123.771 45.4546C124.371 45.4546 124.878 45.328 125.291 45.0746C125.718 44.8213 126.051 44.4813 126.291 44.0546L128.411 45.0946C128.198 45.6146 127.864 46.0746 127.411 46.4746C126.958 46.8746 126.418 47.188 125.791 47.4146C125.178 47.6413 124.498 47.7546 123.751 47.7546ZM130.437 47.5146V36.6346H132.897V39.0546L132.697 38.6946C132.951 37.8813 133.344 37.3146 133.877 36.9946C134.424 36.6746 135.077 36.5146 135.837 36.5146H136.477V38.8346H135.537C134.791 38.8346 134.191 39.068 133.737 39.5346C133.284 39.988 133.057 40.628 133.057 41.4546V47.5146H130.437ZM138.838 51.9146C138.544 51.9146 138.258 51.888 137.978 51.8346C137.698 51.7946 137.444 51.7146 137.218 51.5946V49.4146C137.391 49.4546 137.598 49.4946 137.838 49.5346C138.091 49.5746 138.324 49.5946 138.538 49.5946C139.138 49.5946 139.571 49.4546 139.838 49.1746C140.118 48.908 140.364 48.548 140.578 48.0946L141.298 46.4146L141.258 48.6146L136.518 36.6346H139.338L142.658 45.4746H141.658L144.958 36.6346H147.798L143.058 48.6146C142.778 49.308 142.438 49.9013 142.038 50.3946C141.638 50.888 141.171 51.2613 140.638 51.5146C140.118 51.7813 139.518 51.9146 138.838 51.9146ZM150.771 48.9146H170.771V28.9146H150.771V48.9146Z" fill="white"/>
<path d="M21.268 69.6586C20.636 69.6586 20.044 69.5466 19.492 69.3226C18.94 69.0906 18.456 68.7666 18.04 68.3506C17.632 67.9346 17.312 67.4466 17.08 66.8866C16.848 66.3186 16.732 65.7026 16.732 65.0386C16.732 64.3666 16.848 63.7506 17.08 63.1906C17.312 62.6306 17.632 62.1426 18.04 61.7266C18.456 61.3106 18.936 60.9906 19.48 60.7666C20.032 60.5426 20.628 60.4306 21.268 60.4306C21.908 60.4306 22.5 60.5466 23.044 60.7786C23.596 61.0026 24.076 61.3226 24.484 61.7386C24.9 62.1466 25.224 62.6306 25.456 63.1906C25.696 63.7506 25.816 64.3666 25.816 65.0386C25.816 65.7026 25.696 66.3186 25.456 66.8866C25.224 67.4466 24.9 67.9346 24.484 68.3506C24.076 68.7666 23.596 69.0906 23.044 69.3226C22.5 69.5466 21.908 69.6586 21.268 69.6586ZM21.268 68.5666C21.764 68.5666 22.216 68.4786 22.624 68.3026C23.032 68.1186 23.384 67.8666 23.68 67.5466C23.984 67.2186 24.216 66.8426 24.376 66.4186C24.544 65.9866 24.628 65.5266 24.628 65.0386C24.628 64.5506 24.544 64.0946 24.376 63.6706C24.216 63.2466 23.984 62.8746 23.68 62.5546C23.384 62.2266 23.032 61.9746 22.624 61.7986C22.216 61.6146 21.764 61.5226 21.268 61.5226C20.78 61.5226 20.332 61.6146 19.924 61.7986C19.516 61.9746 19.16 62.2266 18.856 62.5546C18.56 62.8746 18.328 63.2466 18.16 63.6706C17.992 64.0946 17.908 64.5506 17.908 65.0386C17.908 65.5266 17.992 65.9866 18.16 66.4186C18.328 66.8426 18.56 67.2186 18.856 67.5466C19.16 67.8666 19.516 68.1186 19.924 68.3026C20.332 68.4786 20.78 68.5666 21.268 68.5666ZM27.1592 69.5146V63.0466H28.2512V64.3066L28.0712 64.1986C28.2312 63.7906 28.4872 63.4746 28.8392 63.2506C29.1992 63.0186 29.6192 62.9026 30.0992 62.9026C30.5632 62.9026 30.9752 63.0066 31.3352 63.2146C31.7032 63.4226 31.9912 63.7106 32.1992 64.0786C32.4152 64.4466 32.5232 64.8626 32.5232 65.3266V69.5146H31.3952V65.6866C31.3952 65.3266 31.3312 65.0226 31.2032 64.7746C31.0752 64.5266 30.8912 64.3346 30.6512 64.1986C30.4192 64.0546 30.1512 63.9826 29.8472 63.9826C29.5432 63.9826 29.2712 64.0546 29.0312 64.1986C28.7992 64.3346 28.6152 64.5306 28.4792 64.7866C28.3432 65.0346 28.2752 65.3346 28.2752 65.6866V69.5146H27.1592ZM36.0623 72.1546C35.9183 72.1546 35.7743 72.1426 35.6303 72.1186C35.4863 72.0946 35.3503 72.0546 35.2223 71.9986V71.0026C35.3103 71.0186 35.4183 71.0346 35.5463 71.0506C35.6823 71.0746 35.8143 71.0866 35.9423 71.0866C36.3183 71.0866 36.6023 71.0026 36.7943 70.8346C36.9943 70.6746 37.1823 70.3946 37.3583 69.9946L37.7663 69.0226L37.7423 69.9946L34.9823 63.0466H36.1943L38.3423 68.5666H37.9823L40.1183 63.0466H41.3543L38.4383 70.2826C38.3023 70.6266 38.1263 70.9386 37.9103 71.2186C37.7023 71.5066 37.4463 71.7346 37.1423 71.9026C36.8383 72.0706 36.4783 72.1546 36.0623 72.1546ZM45.0619 69.6586C44.4379 69.6586 43.8739 69.5146 43.3699 69.2266C42.8659 68.9306 42.4659 68.5266 42.1699 68.0146C41.8739 67.5026 41.7259 66.9226 41.7259 66.2746C41.7259 65.6266 41.8699 65.0506 42.1579 64.5466C42.4539 64.0426 42.8539 63.6426 43.3579 63.3466C43.8619 63.0506 44.4299 62.9026 45.0619 62.9026C45.6859 62.9026 46.2499 63.0506 46.7539 63.3466C47.2579 63.6346 47.6539 64.0306 47.9419 64.5346C48.2379 65.0386 48.3859 65.6186 48.3859 66.2746C48.3859 66.9306 48.2339 67.5146 47.9299 68.0266C47.6259 68.5306 47.2219 68.9306 46.7179 69.2266C46.2219 69.5146 45.6699 69.6586 45.0619 69.6586ZM45.0619 68.5786C45.4619 68.5786 45.8219 68.4786 46.1419 68.2786C46.4699 68.0786 46.7259 67.8026 46.9099 67.4506C47.1019 67.0986 47.1979 66.7066 47.1979 66.2746C47.1979 65.8346 47.1019 65.4466 46.9099 65.1106C46.7259 64.7666 46.4699 64.4946 46.1419 64.2946C45.8219 64.0866 45.4619 63.9826 45.0619 63.9826C44.6539 63.9826 44.2859 64.0866 43.9579 64.2946C43.6379 64.4946 43.3819 64.7666 43.1899 65.1106C42.9979 65.4466 42.9019 65.8346 42.9019 66.2746C42.9019 66.7066 42.9979 67.0986 43.1899 67.4506C43.3819 67.8026 43.6379 68.0786 43.9579 68.2786C44.2859 68.4786 44.6539 68.5786 45.0619 68.5786ZM51.8935 69.6586C51.4295 69.6586 51.0095 69.5506 50.6335 69.3346C50.2655 69.1186 49.9775 68.8186 49.7695 68.4346C49.5695 68.0426 49.4695 67.5946 49.4695 67.0906V63.0466H50.5855V66.9706C50.5855 67.2906 50.6495 67.5706 50.7775 67.8106C50.9135 68.0506 51.0975 68.2386 51.3295 68.3746C51.5695 68.5106 51.8415 68.5786 52.1455 68.5786C52.4495 68.5786 52.7175 68.5106 52.9495 68.3746C53.1895 68.2386 53.3735 68.0426 53.5015 67.7866C53.6375 67.5306 53.7055 67.2266 53.7055 66.8746V63.0466H54.8335V69.5146H53.7415V68.2546L53.9215 68.3626C53.7695 68.7706 53.5095 69.0906 53.1415 69.3226C52.7815 69.5466 52.3655 69.6586 51.8935 69.6586ZM56.3224 69.5146V63.0466H57.4144V64.2346L57.2944 64.0666C57.4464 63.6986 57.6784 63.4266 57.9904 63.2506C58.3024 63.0666 58.6824 62.9746 59.1304 62.9746H59.5264V64.0306H58.9624C58.5064 64.0306 58.1384 64.1746 57.8584 64.4626C57.5784 64.7426 57.4384 65.1426 57.4384 65.6626V69.5146H56.3224ZM62.796 69.5146V64.1146H61.56V63.0466H62.796V62.5906C62.796 62.1266 62.896 61.7346 63.096 61.4146C63.304 61.0946 63.576 60.8506 63.912 60.6826C64.256 60.5146 64.636 60.4306 65.052 60.4306C65.14 60.4306 65.236 60.4386 65.34 60.4546C65.452 60.4626 65.544 60.4746 65.616 60.4906V61.4866C65.552 61.4706 65.476 61.4626 65.388 61.4626C65.3 61.4546 65.232 61.4506 65.184 61.4506C64.816 61.4506 64.512 61.5386 64.272 61.7146C64.04 61.8906 63.924 62.1826 63.924 62.5906V63.0466H67.284V64.1146H63.924V69.5146H62.796ZM66.588 69.5146V63.0466H67.716V69.5146H66.588ZM69.0204 69.5146V63.0466H70.1124V64.2346L69.9924 64.0666C70.1444 63.6986 70.3764 63.4266 70.6884 63.2506C71.0004 63.0666 71.3804 62.9746 71.8284 62.9746H72.2244V64.0306H71.6604C71.2044 64.0306 70.8364 64.1746 70.5564 64.4626C70.2764 64.7426 70.1364 65.1426 70.1364 65.6626V69.5146H69.0204ZM75.2917 69.6586C74.6437 69.6586 74.0797 69.4986 73.5997 69.1786C73.1197 68.8586 72.7797 68.4266 72.5797 67.8826L73.4677 67.4506C73.6517 67.8346 73.9037 68.1386 74.2237 68.3626C74.5437 68.5866 74.8997 68.6986 75.2917 68.6986C75.6437 68.6986 75.9357 68.6146 76.1677 68.4466C76.3997 68.2786 76.5157 68.0586 76.5157 67.7866C76.5157 67.5946 76.4597 67.4426 76.3477 67.3306C76.2437 67.2106 76.1157 67.1186 75.9637 67.0546C75.8117 66.9826 75.6717 66.9306 75.5437 66.8986L74.5717 66.6226C73.9877 66.4546 73.5597 66.2146 73.2877 65.9026C73.0237 65.5906 72.8917 65.2266 72.8917 64.8106C72.8917 64.4266 72.9877 64.0946 73.1797 63.8146C73.3797 63.5266 73.6477 63.3026 73.9837 63.1426C74.3277 62.9826 74.7117 62.9026 75.1357 62.9026C75.7037 62.9026 76.2117 63.0466 76.6597 63.3346C77.1157 63.6226 77.4397 64.0266 77.6317 64.5466L76.7197 64.9666C76.5757 64.6306 76.3597 64.3666 76.0717 64.1746C75.7837 63.9746 75.4597 63.8746 75.0997 63.8746C74.7717 63.8746 74.5117 63.9586 74.3197 64.1266C74.1277 64.2866 74.0317 64.4906 74.0317 64.7386C74.0317 64.9226 74.0797 65.0746 74.1757 65.1946C74.2717 65.3066 74.3877 65.3946 74.5237 65.4586C74.6597 65.5146 74.7917 65.5626 74.9197 65.6026L75.9757 65.9146C76.5037 66.0666 76.9117 66.3026 77.1997 66.6226C77.4957 66.9426 77.6437 67.3266 77.6437 67.7746C77.6437 68.1346 77.5437 68.4586 77.3437 68.7466C77.1437 69.0346 76.8677 69.2586 76.5157 69.4186C76.1637 69.5786 75.7557 69.6586 75.2917 69.6586ZM81.4926 69.5866C80.8606 69.5866 80.3726 69.4066 80.0286 69.0466C79.6926 68.6866 79.5246 68.1786 79.5246 67.5226V64.1146H78.3486V63.0466H78.5886C78.8766 63.0466 79.1046 62.9586 79.2726 62.7826C79.4406 62.6066 79.5246 62.3746 79.5246 62.0866V61.5586H80.6406V63.0466H82.0926V64.1146H80.6406V67.4866C80.6406 67.7026 80.6726 67.8906 80.7366 68.0506C80.8086 68.2106 80.9246 68.3386 81.0846 68.4346C81.2446 68.5226 81.4566 68.5666 81.7206 68.5666C81.7766 68.5666 81.8446 68.5626 81.9246 68.5546C82.0126 68.5466 82.0926 68.5386 82.1646 68.5306V69.5146C82.0606 69.5386 81.9446 69.5546 81.8166 69.5626C81.6886 69.5786 81.5806 69.5866 81.4926 69.5866ZM88.3007 72.1546C87.8447 72.1546 87.4207 72.0826 87.0287 71.9386C86.6447 71.7946 86.3127 71.5946 86.0327 71.3386C85.7607 71.0906 85.5527 70.7986 85.4087 70.4626L86.4527 69.9826C86.5647 70.2866 86.7767 70.5426 87.0887 70.7506C87.4087 70.9666 87.8087 71.0746 88.2887 71.0746C88.6567 71.0746 88.9887 71.0026 89.2847 70.8586C89.5887 70.7226 89.8287 70.5146 90.0047 70.2346C90.1807 69.9626 90.2687 69.6306 90.2687 69.2386V67.7866L90.4727 68.0026C90.2487 68.4426 89.9247 68.7786 89.5007 69.0106C89.0847 69.2426 88.6247 69.3586 88.1207 69.3586C87.5127 69.3586 86.9687 69.2186 86.4887 68.9386C86.0087 68.6506 85.6327 68.2626 85.3607 67.7746C85.0887 67.2786 84.9527 66.7306 84.9527 66.1306C84.9527 65.5226 85.0887 64.9746 85.3607 64.4866C85.6327 63.9986 86.0047 63.6146 86.4767 63.3346C86.9567 63.0466 87.5007 62.9026 88.1087 62.9026C88.6127 62.9026 89.0687 63.0186 89.4767 63.2506C89.8927 63.4746 90.2247 63.7866 90.4727 64.1866L90.3047 64.4866V63.0466H91.3967V69.2386C91.3967 69.7986 91.2647 70.2986 91.0007 70.7386C90.7367 71.1786 90.3687 71.5226 89.8967 71.7706C89.4327 72.0266 88.9007 72.1546 88.3007 72.1546ZM88.2167 68.2786C88.6007 68.2786 88.9447 68.1826 89.2487 67.9906C89.5607 67.7986 89.8087 67.5426 89.9927 67.2226C90.1767 66.8946 90.2687 66.5306 90.2687 66.1306C90.2687 65.7386 90.1767 65.3786 89.9927 65.0506C89.8087 64.7226 89.5607 64.4626 89.2487 64.2706C88.9447 64.0786 88.6007 63.9826 88.2167 63.9826C87.8247 63.9826 87.4687 64.0786 87.1487 64.2706C86.8287 64.4626 86.5767 64.7226 86.3927 65.0506C86.2167 65.3706 86.1287 65.7306 86.1287 66.1306C86.1287 66.5306 86.2167 66.8946 86.3927 67.2226C86.5767 67.5426 86.8247 67.7986 87.1367 67.9906C87.4567 68.1826 87.8167 68.2786 88.2167 68.2786ZM92.8868 69.5146V63.0466H93.9788V64.2346L93.8588 64.0666C94.0108 63.6986 94.2428 63.4266 94.5548 63.2506C94.8668 63.0666 95.2468 62.9746 95.6948 62.9746H96.0908V64.0306H95.5268C95.0708 64.0306 94.7028 64.1746 94.4228 64.4626C94.1428 64.7426 94.0028 65.1426 94.0028 65.6626V69.5146H92.8868ZM99.9141 69.6586C99.2901 69.6586 98.7261 69.5146 98.2221 69.2266C97.7181 68.9306 97.3181 68.5266 97.0221 68.0146C96.7261 67.5026 96.5781 66.9226 96.5781 66.2746C96.5781 65.6266 96.7221 65.0506 97.0101 64.5466C97.3061 64.0426 97.7061 63.6426 98.2101 63.3466C98.7141 63.0506 99.2821 62.9026 99.9141 62.9026C100.538 62.9026 101.102 63.0506 101.606 63.3466C102.11 63.6346 102.506 64.0306 102.794 64.5346C103.09 65.0386 103.238 65.6186 103.238 66.2746C103.238 66.9306 103.086 67.5146 102.782 68.0266C102.478 68.5306 102.074 68.9306 101.57 69.2266C101.074 69.5146 100.522 69.6586 99.9141 69.6586ZM99.9141 68.5786C100.314 68.5786 100.674 68.4786 100.994 68.2786C101.322 68.0786 101.578 67.8026 101.762 67.4506C101.954 67.0986 102.05 66.7066 102.05 66.2746C102.05 65.8346 101.954 65.4466 101.762 65.1106C101.578 64.7666 101.322 64.4946 100.994 64.2946C100.674 64.0866 100.314 63.9826 99.9141 63.9826C99.5061 63.9826 99.1381 64.0866 98.8101 64.2946C98.4901 64.4946 98.2341 64.7666 98.0421 65.1106C97.8501 65.4466 97.7541 65.8346 97.7541 66.2746C97.7541 66.7066 97.8501 67.0986 98.0421 67.4506C98.2341 67.8026 98.4901 68.0786 98.8101 68.2786C99.1381 68.4786 99.5061 68.5786 99.9141 68.5786ZM107.454 69.6586C106.822 69.6586 106.258 69.5106 105.762 69.2146C105.274 68.9186 104.89 68.5146 104.61 68.0026C104.33 67.4906 104.19 66.9146 104.19 66.2746C104.19 65.6266 104.33 65.0506 104.61 64.5466C104.89 64.0426 105.274 63.6426 105.762 63.3466C106.258 63.0506 106.822 62.9026 107.454 62.9026C107.878 62.9026 108.274 62.9786 108.642 63.1306C109.01 63.2826 109.334 63.4866 109.614 63.7426C109.894 63.9986 110.098 64.2986 110.226 64.6426L109.23 65.1226C109.078 64.7866 108.846 64.5146 108.534 64.3066C108.222 64.0906 107.862 63.9826 107.454 63.9826C107.062 63.9826 106.706 64.0826 106.386 64.2826C106.074 64.4826 105.826 64.7546 105.642 65.0986C105.458 65.4426 105.366 65.8386 105.366 66.2866C105.366 66.7186 105.458 67.1106 105.642 67.4626C105.826 67.8066 106.074 68.0786 106.386 68.2786C106.706 68.4786 107.062 68.5786 107.454 68.5786C107.862 68.5786 108.222 68.4746 108.534 68.2666C108.846 68.0506 109.078 67.7666 109.23 67.4146L110.226 67.9186C110.098 68.2546 109.894 68.5546 109.614 68.8186C109.334 69.0746 109.01 69.2786 108.642 69.4306C108.274 69.5826 107.878 69.6586 107.454 69.6586ZM114.42 69.6586C113.796 69.6586 113.24 69.5106 112.752 69.2146C112.264 68.9186 111.88 68.5146 111.6 68.0026C111.32 67.4826 111.18 66.9026 111.18 66.2626C111.18 65.6146 111.316 65.0386 111.588 64.5346C111.868 64.0306 112.244 63.6346 112.716 63.3466C113.196 63.0506 113.732 62.9026 114.324 62.9026C114.804 62.9026 115.228 62.9906 115.596 63.1666C115.972 63.3346 116.288 63.5666 116.544 63.8626C116.808 64.1506 117.008 64.4826 117.144 64.8586C117.288 65.2266 117.36 65.6106 117.36 66.0106C117.36 66.0986 117.352 66.1986 117.336 66.3106C117.328 66.4146 117.316 66.5146 117.3 66.6106H111.996V65.6506H116.652L116.124 66.0826C116.196 65.6666 116.156 65.2946 116.004 64.9666C115.852 64.6386 115.628 64.3786 115.332 64.1866C115.036 63.9946 114.7 63.8986 114.324 63.8986C113.948 63.8986 113.604 63.9946 113.292 64.1866C112.98 64.3786 112.736 64.6546 112.56 65.0146C112.392 65.3666 112.324 65.7866 112.356 66.2746C112.324 66.7466 112.396 67.1626 112.572 67.5226C112.756 67.8746 113.012 68.1506 113.34 68.3506C113.676 68.5426 114.04 68.6386 114.432 68.6386C114.864 68.6386 115.228 68.5386 115.524 68.3386C115.82 68.1386 116.06 67.8826 116.244 67.5706L117.18 68.0506C117.052 68.3466 116.852 68.6186 116.58 68.8666C116.316 69.1066 116 69.2986 115.632 69.4426C115.272 69.5866 114.868 69.6586 114.42 69.6586ZM118.575 69.5146V63.0466H119.667V64.2346L119.547 64.0666C119.699 63.6986 119.931 63.4266 120.243 63.2506C120.555 63.0666 120.935 62.9746 121.383 62.9746H121.779V64.0306H121.215C120.759 64.0306 120.391 64.1746 120.111 64.4626C119.831 64.7426 119.691 65.1426 119.691 65.6626V69.5146H118.575ZM122.879 72.1546C122.735 72.1546 122.591 72.1426 122.447 72.1186C122.303 72.0946 122.167 72.0546 122.039 71.9986V71.0026C122.127 71.0186 122.235 71.0346 122.363 71.0506C122.499 71.0746 122.631 71.0866 122.759 71.0866C123.135 71.0866 123.419 71.0026 123.611 70.8346C123.811 70.6746 123.999 70.3946 124.175 69.9946L124.583 69.0226L124.559 69.9946L121.799 63.0466H123.011L125.159 68.5666H124.799L126.935 63.0466H128.171L125.255 70.2826C125.119 70.6266 124.943 70.9386 124.727 71.2186C124.519 71.5066 124.263 71.7346 123.959 71.9026C123.655 72.0706 123.295 72.1546 122.879 72.1546ZM133.83 69.6586C133.206 69.6586 132.642 69.5146 132.138 69.2266C131.634 68.9306 131.234 68.5266 130.938 68.0146C130.642 67.5026 130.494 66.9226 130.494 66.2746C130.494 65.6266 130.638 65.0506 130.926 64.5466C131.222 64.0426 131.622 63.6426 132.126 63.3466C132.63 63.0506 133.198 62.9026 133.83 62.9026C134.454 62.9026 135.018 63.0506 135.522 63.3466C136.026 63.6346 136.422 64.0306 136.71 64.5346C137.006 65.0386 137.154 65.6186 137.154 66.2746C137.154 66.9306 137.002 67.5146 136.698 68.0266C136.394 68.5306 135.99 68.9306 135.486 69.2266C134.99 69.5146 134.438 69.6586 133.83 69.6586ZM133.83 68.5786C134.23 68.5786 134.59 68.4786 134.91 68.2786C135.238 68.0786 135.494 67.8026 135.678 67.4506C135.87 67.0986 135.966 66.7066 135.966 66.2746C135.966 65.8346 135.87 65.4466 135.678 65.1106C135.494 64.7666 135.238 64.4946 134.91 64.2946C134.59 64.0866 134.23 63.9826 133.83 63.9826C133.422 63.9826 133.054 64.0866 132.726 64.2946C132.406 64.4946 132.15 64.7666 131.958 65.1106C131.766 65.4466 131.67 65.8346 131.67 66.2746C131.67 66.7066 131.766 67.0986 131.958 67.4506C132.15 67.8026 132.406 68.0786 132.726 68.2786C133.054 68.4786 133.422 68.5786 133.83 68.5786ZM138.369 69.5146V63.0466H139.461V64.2346L139.341 64.0666C139.493 63.6986 139.725 63.4266 140.037 63.2506C140.349 63.0666 140.729 62.9746 141.177 62.9746H141.573V64.0306H141.009C140.553 64.0306 140.185 64.1746 139.905 64.4626C139.625 64.7426 139.485 65.1426 139.485 65.6626V69.5146H138.369ZM145.264 69.6586C144.656 69.6586 144.108 69.5106 143.62 69.2146C143.14 68.9186 142.76 68.5146 142.48 68.0026C142.2 67.4906 142.06 66.9186 142.06 66.2866C142.06 65.6386 142.2 65.0626 142.48 64.5586C142.76 64.0466 143.14 63.6426 143.62 63.3466C144.108 63.0506 144.656 62.9026 145.264 62.9026C145.8 62.9026 146.276 63.0186 146.692 63.2506C147.108 63.4746 147.436 63.7786 147.676 64.1626L147.496 64.4386V60.4306H148.624V69.5146H147.532V68.1346L147.676 68.3266C147.452 68.7506 147.124 69.0786 146.692 69.3106C146.268 69.5426 145.792 69.6586 145.264 69.6586ZM145.36 68.5786C145.768 68.5786 146.132 68.4786 146.452 68.2786C146.772 68.0786 147.024 67.8066 147.208 67.4626C147.4 67.1106 147.496 66.7186 147.496 66.2866C147.496 65.8466 147.4 65.4546 147.208 65.1106C147.024 64.7586 146.772 64.4826 146.452 64.2826C146.132 64.0826 145.768 63.9826 145.36 63.9826C144.96 63.9826 144.596 64.0866 144.268 64.2946C143.948 64.4946 143.696 64.7666 143.512 65.1106C143.328 65.4466 143.236 65.8386 143.236 66.2866C143.236 66.7186 143.328 67.1106 143.512 67.4626C143.696 67.8066 143.948 68.0786 144.268 68.2786C144.588 68.4786 144.952 68.5786 145.36 68.5786ZM153.088 69.6586C152.464 69.6586 151.908 69.5106 151.42 69.2146C150.932 68.9186 150.548 68.5146 150.268 68.0026C149.988 67.4826 149.848 66.9026 149.848 66.2626C149.848 65.6146 149.984 65.0386 150.256 64.5346C150.536 64.0306 150.912 63.6346 151.384 63.3466C151.864 63.0506 152.4 62.9026 152.992 62.9026C153.472 62.9026 153.896 62.9906 154.264 63.1666C154.64 63.3346 154.956 63.5666 155.212 63.8626C155.476 64.1506 155.676 64.4826 155.812 64.8586C155.956 65.2266 156.028 65.6106 156.028 66.0106C156.028 66.0986 156.02 66.1986 156.004 66.3106C155.996 66.4146 155.984 66.5146 155.968 66.6106H150.664V65.6506H155.32L154.792 66.0826C154.864 65.6666 154.824 65.2946 154.672 64.9666C154.52 64.6386 154.296 64.3786 154 64.1866C153.704 63.9946 153.368 63.8986 152.992 63.8986C152.616 63.8986 152.272 63.9946 151.96 64.1866C151.648 64.3786 151.404 64.6546 151.228 65.0146C151.06 65.3666 150.992 65.7866 151.024 66.2746C150.992 66.7466 151.064 67.1626 151.24 67.5226C151.424 67.8746 151.68 68.1506 152.008 68.3506C152.344 68.5426 152.708 68.6386 153.1 68.6386C153.532 68.6386 153.896 68.5386 154.192 68.3386C154.488 68.1386 154.728 67.8826 154.912 67.5706L155.848 68.0506C155.72 68.3466 155.52 68.6186 155.248 68.8666C154.984 69.1066 154.668 69.2986 154.3 69.4426C153.94 69.5866 153.536 69.6586 153.088 69.6586ZM157.243 69.5146V63.0466H158.335V64.2346L158.215 64.0666C158.367 63.6986 158.599 63.4266 158.911 63.2506C159.223 63.0666 159.603 62.9746 160.051 62.9746H160.447V64.0306H159.883C159.427 64.0306 159.059 64.1746 158.779 64.4626C158.499 64.7426 158.359 65.1426 158.359 65.6626V69.5146H157.243Z" fill="white"/>
<rect x="16" y="88.5146" width="92" height="28" rx="12" fill="#111111"/>
<path d="M35.556 107.659C34.996 107.659 34.476 107.555 33.996 107.347C33.516 107.131 33.108 106.839 32.772 106.471C32.436 106.103 32.188 105.679 32.028 105.199L33.228 104.695C33.444 105.247 33.76 105.671 34.176 105.967C34.592 106.263 35.072 106.411 35.616 106.411C35.936 106.411 36.216 106.363 36.456 106.267C36.696 106.163 36.88 106.019 37.008 105.835C37.144 105.651 37.212 105.439 37.212 105.199C37.212 104.871 37.12 104.611 36.936 104.419C36.752 104.227 36.48 104.075 36.12 103.963L34.44 103.435C33.768 103.227 33.256 102.911 32.904 102.487C32.552 102.055 32.376 101.551 32.376 100.975C32.376 100.471 32.5 100.031 32.748 99.6546C32.996 99.2706 33.336 98.9706 33.768 98.7546C34.208 98.5386 34.708 98.4306 35.268 98.4306C35.804 98.4306 36.292 98.5266 36.732 98.7186C37.172 98.9026 37.548 99.1586 37.86 99.4866C38.18 99.8146 38.412 100.195 38.556 100.627L37.38 101.143C37.204 100.671 36.928 100.307 36.552 100.051C36.184 99.7946 35.756 99.6666 35.268 99.6666C34.972 99.6666 34.712 99.7186 34.488 99.8226C34.264 99.9186 34.088 100.063 33.96 100.255C33.84 100.439 33.78 100.655 33.78 100.903C33.78 101.191 33.872 101.447 34.056 101.671C34.24 101.895 34.52 102.063 34.896 102.175L36.456 102.667C37.168 102.883 37.704 103.195 38.064 103.603C38.424 104.003 38.604 104.503 38.604 105.103C38.604 105.599 38.472 106.039 38.208 106.423C37.952 106.807 37.596 107.111 37.14 107.335C36.684 107.551 36.156 107.659 35.556 107.659ZM40.1215 107.515V98.4306H41.4775V102.295L41.2615 102.127C41.4215 101.719 41.6775 101.411 42.0295 101.203C42.3815 100.987 42.7895 100.879 43.2535 100.879C43.7335 100.879 44.1575 100.983 44.5255 101.191C44.8935 101.399 45.1815 101.687 45.3895 102.055C45.5975 102.423 45.7015 102.843 45.7015 103.315V107.515H44.3575V103.687C44.3575 103.359 44.2935 103.083 44.1655 102.859C44.0455 102.627 43.8775 102.451 43.6615 102.331C43.4455 102.203 43.1975 102.139 42.9175 102.139C42.6455 102.139 42.3975 102.203 42.1735 102.331C41.9575 102.451 41.7855 102.627 41.6575 102.859C41.5375 103.091 41.4775 103.367 41.4775 103.687V107.515H40.1215ZM50.3448 107.659C49.7208 107.659 49.1488 107.511 48.6288 107.215C48.1168 106.919 47.7088 106.515 47.4048 106.003C47.1008 105.491 46.9488 104.911 46.9488 104.263C46.9488 103.607 47.1008 103.027 47.4048 102.523C47.7088 102.011 48.1168 101.611 48.6288 101.323C49.1408 101.027 49.7128 100.879 50.3448 100.879C50.9848 100.879 51.5568 101.027 52.0608 101.323C52.5728 101.611 52.9768 102.011 53.2728 102.523C53.5768 103.027 53.7288 103.607 53.7288 104.263C53.7288 104.919 53.5768 105.503 53.2728 106.015C52.9688 106.527 52.5608 106.931 52.0488 107.227C51.5368 107.515 50.9688 107.659 50.3448 107.659ZM50.3448 106.399C50.7288 106.399 51.0688 106.307 51.3648 106.123C51.6608 105.939 51.8928 105.687 52.0608 105.367C52.2368 105.039 52.3248 104.671 52.3248 104.263C52.3248 103.855 52.2368 103.491 52.0608 103.171C51.8928 102.851 51.6608 102.599 51.3648 102.415C51.0688 102.231 50.7288 102.139 50.3448 102.139C49.9688 102.139 49.6288 102.231 49.3248 102.415C49.0288 102.599 48.7928 102.851 48.6168 103.171C48.4488 103.491 48.3648 103.855 48.3648 104.263C48.3648 104.671 48.4488 105.039 48.6168 105.367C48.7928 105.687 49.0288 105.939 49.3248 106.123C49.6288 106.307 49.9688 106.399 50.3448 106.399ZM55.1126 109.915V101.023H56.4086V102.367L56.2526 102.055C56.4926 101.687 56.8126 101.399 57.2126 101.191C57.6126 100.983 58.0686 100.879 58.5806 100.879C59.1966 100.879 59.7486 101.027 60.2366 101.323C60.7326 101.619 61.1206 102.023 61.4006 102.535C61.6886 103.047 61.8326 103.623 61.8326 104.263C61.8326 104.903 61.6886 105.479 61.4006 105.991C61.1206 106.503 60.7366 106.911 60.2486 107.215C59.7606 107.511 59.2046 107.659 58.5806 107.659C58.0766 107.659 57.6166 107.555 57.2006 107.347C56.7926 107.139 56.4766 106.839 56.2526 106.447L56.4686 106.195V109.915H55.1126ZM58.4486 106.399C58.8326 106.399 59.1726 106.307 59.4686 106.123C59.7646 105.939 59.9966 105.687 60.1646 105.367C60.3406 105.039 60.4286 104.671 60.4286 104.263C60.4286 103.855 60.3406 103.491 60.1646 103.171C59.9966 102.851 59.7646 102.599 59.4686 102.415C59.1726 102.231 58.8326 102.139 58.4486 102.139C58.0726 102.139 57.7326 102.231 57.4286 102.415C57.1326 102.599 56.8966 102.851 56.7206 103.171C56.5526 103.491 56.4686 103.855 56.4686 104.263C56.4686 104.671 56.5526 105.039 56.7206 105.367C56.8966 105.687 57.1326 105.939 57.4286 106.123C57.7326 106.307 58.0726 106.399 58.4486 106.399ZM65.5013 107.515V98.5746H66.6413L71.6573 105.499L71.1173 105.583V98.5746H72.5213V107.515H71.3813L66.4013 100.543L66.9173 100.447V107.515H65.5013ZM77.4324 107.659C76.8084 107.659 76.2364 107.511 75.7164 107.215C75.2044 106.919 74.7964 106.515 74.4924 106.003C74.1884 105.491 74.0364 104.911 74.0364 104.263C74.0364 103.607 74.1884 103.027 74.4924 102.523C74.7964 102.011 75.2044 101.611 75.7164 101.323C76.2284 101.027 76.8004 100.879 77.4324 100.879C78.0724 100.879 78.6444 101.027 79.1484 101.323C79.6604 101.611 80.0644 102.011 80.3604 102.523C80.6644 103.027 80.8164 103.607 80.8164 104.263C80.8164 104.919 80.6644 105.503 80.3604 106.015C80.0564 106.527 79.6484 106.931 79.1364 107.227C78.6244 107.515 78.0564 107.659 77.4324 107.659ZM77.4324 106.399C77.8164 106.399 78.1564 106.307 78.4524 106.123C78.7484 105.939 78.9804 105.687 79.1484 105.367C79.3244 105.039 79.4124 104.671 79.4124 104.263C79.4124 103.855 79.3244 103.491 79.1484 103.171C78.9804 102.851 78.7484 102.599 78.4524 102.415C78.1564 102.231 77.8164 102.139 77.4324 102.139C77.0564 102.139 76.7164 102.231 76.4124 102.415C76.1164 102.599 75.8804 102.851 75.7044 103.171C75.5364 103.491 75.4524 103.855 75.4524 104.263C75.4524 104.671 75.5364 105.039 75.7044 105.367C75.8804 105.687 76.1164 105.939 76.4124 106.123C76.7164 106.307 77.0564 106.399 77.4324 106.399ZM83.6551 107.515L81.4231 101.023H82.8631L84.5671 106.195H84.0631L85.8031 101.023H87.0391L88.7671 106.195H88.2631L89.9791 101.023H91.4191L89.1751 107.515H87.9511L86.1991 102.223H86.6431L84.8911 107.515H83.6551Z" fill="#FEFEFE"/>
<path d="M237.114 29.5581L245.088 37.1226L240.894 47.0122L229.024 44.6156L237.114 29.5581Z" fill="#473834"/>
<path d="M214.965 38.5277C214.706 37.6385 223.438 21.7615 223.438 21.7615L237.109 29.5585L229.291 46.201L214.965 38.5277Z" fill="#725A52"/>
<path d="M226.402 52.8976C226.549 52.7846 235.595 47.6897 238.83 43.8042C244.061 37.5226 246.004 26.9653 246.004 26.9653L248.281 26.1745C248.281 26.1745 252.943 31.6277 251.284 38.5977C249.624 45.5679 247.215 48.8241 240.919 52.8086C234.047 57.1581 226.84 55.1346 226.84 55.1346L226.402 52.8976Z" fill="#E5CA2E"/>
<path d="M248.18 26.2542C249.429 28.4168 251.038 32.3189 249.955 36.8674C248.296 43.8375 245.886 47.0938 239.59 51.0783C234.3 54.4265 228.812 53.9983 226.566 53.6237L226.869 55.1693C226.869 55.1693 234.075 57.1928 240.948 52.8433C247.244 48.8588 249.653 45.6026 251.312 38.6325C252.972 31.6623 248.31 26.2091 248.31 26.2091L248.18 26.2542Z" fill="#E0A32B"/>
<path d="M246 26.9661L244.698 22.8378L246.119 21.7448L248.278 26.1753L246 26.9661Z" fill="#E5CA2E"/>
<path d="M243.6 21.5828C243.467 22.3995 243.867 23.478 243.867 23.478L247.385 22.0687L246.555 20.3814L243.6 21.5828Z" fill="#E5CA2E"/>
<path d="M226.84 55.1343L226.402 52.898L228.352 52.6848L227.803 54.5669L226.84 55.1343Z" fill="#60443E"/>
<path d="M244.239 22.4967C244.409 22.5069 244.575 22.457 244.738 22.4079C245.122 22.2912 245.507 22.1744 245.886 22.0379C246.134 21.9482 246.427 21.7784 246.4 21.5156C246.382 21.3427 246.217 21.2142 246.046 21.1828C245.875 21.1512 245.7 21.1954 245.533 21.2429C245.112 21.3624 244.367 21.4858 244.021 21.7532C243.696 22.0046 243.744 22.4669 244.239 22.4967Z" fill="#FFF431"/>
<path d="M229.783 52.2347C232.209 51.0552 234.622 49.823 236.83 48.273C239.037 46.7229 241.046 44.8379 242.473 42.5489C242.599 42.3469 242.723 42.1326 242.743 41.8954C242.763 41.6582 242.647 41.3926 242.422 41.3164C242.186 41.2367 241.937 41.3831 241.741 41.5367C241.026 42.0973 240.475 42.8331 239.891 43.529C237.486 46.3988 234.459 48.6661 231.32 50.6732C230.909 50.9366 230.448 51.165 230.054 51.4489C229.921 51.5446 229.813 51.5503 229.732 51.7151C229.708 51.7631 229.65 52.2992 229.783 52.2347Z" fill="#FFF431"/>
<path d="M243.175 39.9442C243.393 39.9925 243.622 39.8812 243.774 39.7161C243.925 39.5512 244.013 39.3395 244.096 39.1317C244.653 37.7433 245.128 36.3222 245.517 34.8781C245.606 34.549 245.691 34.2087 245.647 33.8707C245.634 33.7782 245.611 33.6834 245.551 33.6118C245.413 33.4472 245.146 33.474 244.961 33.5828C244.588 33.8021 244.418 34.2434 244.274 34.6517C243.762 36.1056 243.25 37.5597 242.738 39.0136C242.706 39.1037 242.674 39.199 242.692 39.2928C242.731 39.4907 242.958 39.8963 243.175 39.9442Z" fill="#FFF431"/>
<path d="M245.491 22.8253C245.491 22.8253 245.378 22.3294 246.241 23.8008C247.105 25.2723 247.71 26.2109 247.71 26.2109C247.71 26.2109 247.792 26.1183 248.292 26.6404C248.792 27.1625 248.96 27.18 248.96 27.18L248.276 26.1744L246.456 22.4389L245.491 22.8253Z" fill="#E0A32B"/>
<path d="M247.385 22.0687L246.793 21.9473L246.009 20.6041L246.555 20.382L247.385 22.0687Z" fill="#E0A32B"/>
<path d="M209.566 46.5847C209.75 46.5639 220.127 46.8837 224.906 45.2326C232.632 42.5633 239.756 34.5336 239.756 34.5336L242.115 35.0354C242.115 35.0354 243.283 42.1138 238.257 47.2201C233.231 52.3264 229.484 53.8665 222.035 54.0192C213.903 54.1858 208.783 48.7258 208.783 48.7258L209.566 46.5847Z" fill="#E5CA2E"/>
<path d="M241.989 35.0507C241.938 37.5475 241.296 41.7192 238.016 45.0515C232.99 50.1578 229.244 51.6979 221.795 51.8506C215.535 51.9788 211.061 48.7734 209.332 47.2904L208.791 48.7697C208.791 48.7697 213.912 54.2298 222.043 54.0631C229.492 53.9105 233.239 52.3704 238.265 47.264C243.291 42.1577 242.123 35.0792 242.123 35.0792L241.989 35.0507Z" fill="#E0A32B"/>
<path d="M239.759 34.5338L240.78 30.3269L242.561 30.1269L242.117 35.0355L239.759 34.5338Z" fill="#E5CA2E"/>
<path d="M240.486 28.6842C239.95 29.3144 239.734 30.4446 239.734 30.4446L243.474 31.0585L243.637 29.1855L240.486 28.6842Z" fill="#E5CA2E"/>
<path d="M208.783 48.7256L209.565 46.5855L211.344 47.4117L209.9 48.7384L208.783 48.7256Z" fill="#60443E"/>
<path d="M240.56 29.7985C240.699 29.8947 240.868 29.9384 241.032 29.9803C241.422 30.0796 241.812 30.1788 242.206 30.2576C242.465 30.3095 242.803 30.3156 242.916 30.0766C242.991 29.9194 242.915 29.7239 242.785 29.6084C242.655 29.493 242.483 29.4403 242.315 29.3945C241.894 29.2794 241.192 28.9994 240.758 29.0493C240.349 29.0963 240.151 29.5167 240.56 29.7985Z" fill="#FFF431"/>
<path d="M212.799 47.7654C215.485 48.0112 218.188 48.2048 220.879 48.0206C223.57 47.8363 226.264 47.2622 228.67 46.0418C228.882 45.9342 229.099 45.8151 229.239 45.6225C229.379 45.4298 229.417 45.1424 229.263 44.9604C229.103 44.7703 228.814 44.7667 228.567 44.797C227.665 44.907 226.813 45.2513 225.953 45.5451C222.41 46.7564 218.647 47.1307 214.922 47.2246C214.434 47.237 213.921 47.1943 213.437 47.2333C213.274 47.2464 213.179 47.1957 213.024 47.2943C212.978 47.3229 212.652 47.7519 212.799 47.7654Z" fill="#FFF431"/>
<path d="M230.623 44.1786C230.785 44.3331 231.039 44.3564 231.254 44.2936C231.469 44.2307 231.654 44.095 231.832 43.9603C233.027 43.0603 234.169 42.0898 235.249 41.0553C235.495 40.8197 235.744 40.5723 235.881 40.2603C235.918 40.1748 235.947 40.0813 235.933 39.9891C235.901 39.7772 235.658 39.6615 235.443 39.6589C235.01 39.6535 234.636 39.9432 234.302 40.2183C233.112 41.1977 231.921 42.1771 230.731 43.1565C230.657 43.2172 230.581 43.2821 230.548 43.3718C230.478 43.561 230.463 44.0257 230.623 44.1786Z" fill="#FFF431"/>
<path d="M241.467 30.7287C241.467 30.7287 241.627 30.2459 241.604 31.9516C241.582 33.6573 241.614 34.7737 241.614 34.7737C241.614 34.7737 241.732 34.737 241.89 35.4426C242.048 36.1482 242.182 36.2497 242.182 36.2497L242.118 35.0357L242.492 30.8971L241.467 30.7287Z" fill="#E0A32B"/>
<path d="M243.472 31.058L243.028 30.6479L243.053 29.0928L243.635 29.1855L243.472 31.058Z" fill="#E0A32B"/>
<path d="M260.025 0C261.134 0.264283 262.267 0.422233 263.405 0.471138C263.562 8.29774 263.719 16.1242 263.876 23.9508C263.906 25.4721 263.911 27.091 263.106 28.382C262.3 29.673 260.361 30.3696 259.217 29.3655C258.239 28.5069 258.338 26.9832 258.517 25.6941C259.077 21.6686 260.169 17.881 260.316 13.8295C260.364 12.5124 260.934 0.216553 260.025 0Z" fill="#568E4C"/>
<path d="M269.566 7.40618C270.04 6.56993 270.475 3.90834 271.428 4.04024C272.509 4.19001 273.507 4.94163 273.889 5.82369C270.34 13.7935 266.791 21.7633 263.242 29.7331C262.558 31.2701 260.129 34.0112 259.272 31.1991C258.648 29.151 260.443 25.8081 261.156 24.0002C263.438 18.2215 266.509 12.7997 269.566 7.40618Z" fill="#73BA65"/>
<path d="M272.986 13.4881C273.56 13.8131 274.134 14.1381 274.708 14.4631C270.346 22.5997 265.549 30.5034 260.345 38.1294C258.88 40.2766 257.32 42.4622 255.104 43.8209C254.798 44.0084 254.448 44.1846 254.096 44.1174C251.582 43.6384 255.971 33.6899 256.981 32.0657C259.491 28.0247 262.795 24.1736 265.937 20.6222C266.536 19.9445 272.399 13.1559 272.986 13.4881Z" fill="#568E4C"/>
<path d="M258.165 7.65802C258.9 7.28109 259.841 7.74692 260.273 8.45137C260.704 9.15595 260.758 10.0201 260.801 10.8453C260.934 13.4556 261.068 16.0689 260.999 18.6817C260.844 24.5308 259.678 30.3004 258.516 36.0358C257.975 38.7034 257.324 42.8504 254.82 44.4847C252.087 46.2691 252.449 43.1636 252.855 41.4639C254.534 34.4323 255.992 27.401 256.936 20.2258C257.219 18.0756 257.465 15.9205 257.674 13.7618C257.742 13.0496 257.712 7.89026 258.165 7.65802Z" fill="#73BA65"/>
<path d="M255.359 18.2686C256.64 18.8168 257.921 19.3649 259.203 19.9131C258.79 27.4859 257.422 35.0062 255.142 42.2389C258.593 35.0628 263.558 28.6191 269.617 23.4522C270.664 24.4109 271.711 25.3696 272.757 26.3283C269.649 29.0072 267.36 32.4893 265.112 35.9229C260.576 42.8537 255.999 49.8665 253.204 57.6641C252.482 59.6798 251.859 61.7838 250.568 63.4919C248.134 66.7112 241.909 67.0777 241.963 61.8191C241.979 60.2144 243.294 58.7484 243.965 57.3689C245.11 55.0178 245.957 52.4781 246.851 50.0233C250.603 39.7127 253.455 29.0743 255.359 18.2686Z" fill="#568E4C"/>
<path d="M259.781 32.1578C262.652 29.1607 265.877 26.5046 269.37 24.2628C264.634 28.3913 259.765 32.694 257.117 38.3915C257.247 37.2286 257.42 35.9306 257.794 34.8178C258.141 33.7838 259.042 32.9294 259.781 32.1578Z" fill="#73BA65"/>
<path d="M239.482 46.0336C240.743 45.3649 241.549 45.7806 243.216 45.0826C243.412 45.0001 243.418 45.5062 243.562 45.6634C243.766 45.8862 243.124 46.2697 243.003 46.5469C242.883 46.8239 242.66 47.0417 242.437 47.2457C241.217 48.3619 239.347 49.9737 237.616 50.0808C237.184 50.1076 234.445 50.4815 234.666 49.9696C235.298 48.511 237.22 48.2503 237.603 47.9195C238.437 47.1992 238.185 46.7213 239.482 46.0336Z" fill="#AD3E3B"/>
<path d="M239.348 48.8062C237.637 49.9005 233.729 48.6567 232.908 52.3089C232.087 55.9611 235.758 61.8724 238.861 63.5364C241.964 65.2005 246.32 63.4516 248.901 61.8867C251.915 60.0591 255.478 55.8723 252.947 50.6654C250.733 46.1103 247.31 42.9561 243.389 44.9904C241.002 46.2294 242.151 47.0138 239.348 48.8062Z" fill="#D34D46"/>
<path d="M245.914 44.3619C247.58 45.4529 249.026 47.4134 250.157 49.7396C252.688 54.9465 249.125 59.1333 246.111 60.9609C244.13 62.1619 241.104 63.4708 238.401 63.2629C238.555 63.3637 238.708 63.4554 238.86 63.5367C241.963 65.2008 246.319 63.4519 248.9 61.887C251.913 60.0594 255.476 55.8726 252.946 50.6657C251.222 47.1201 248.767 44.4237 245.914 44.3619Z" fill="#AD3E3B"/>
<path opacity="0.27" d="M235.067 53.5207C234.909 54.4409 235.093 55.4024 235.5 56.2423C235.738 56.7319 236.066 57.2002 236.539 57.4696C237.013 57.7388 237.652 57.7652 238.076 57.4227C238.184 57.335 238.277 57.2231 238.321 57.0907C238.383 56.9043 238.342 56.7014 238.3 56.5094C238.105 55.6072 237.914 54.6601 238.17 53.7732C238.293 53.3498 238.513 52.9584 238.62 52.531C238.728 52.1036 238.698 51.5998 238.383 51.291C237.898 50.8141 236.901 50.982 236.38 51.3108C235.662 51.7649 235.205 52.7122 235.067 53.5207Z" fill="white"/>
<path opacity="0.27" d="M238.238 58.4645C237.891 58.6649 237.798 59.1725 237.998 59.5199C238.198 59.8671 238.624 60.0449 239.024 60.0171C239.235 60.0025 239.461 59.9233 239.568 59.7404C239.645 59.6079 239.647 59.444 239.623 59.2924C239.578 59.0122 239.448 58.7394 239.23 58.5573C239.013 58.3752 238.703 58.2955 238.434 58.3854L238.238 58.4645Z" fill="white"/>
<path d="M210.618 26.2385L210.577 26.1474C210.546 26.1785 210.395 26.065 210.508 26.1842C210.544 26.2022 210.581 26.2204 210.618 26.2385Z" fill="#ED9254"/>
<path d="M206.231 41.0175C208.864 41.2264 211.169 37.5692 212.431 35.5845C213.599 33.7493 215.469 30.0262 213.06 27.7686C212.351 27.1046 211.312 26.6415 210.481 26.2338L210.728 26.7852C210.09 25.6449 208.507 23.8116 207.448 23.9889C206.335 24.1753 204.836 24.3304 203.815 24.788C200.015 26.4923 198.858 28.5245 198.895 32.3238C198.944 37.3744 202.92 40.7546 206.231 41.0175Z" fill="#ED9254"/>
<path d="M206.216 40.9461C206.805 40.9929 207.377 40.8459 207.925 40.5676C204.92 39.7073 201.818 36.5514 201.775 32.0935C201.739 28.2943 202.895 26.262 206.695 24.5577C207.148 24.3545 207.696 24.2112 208.261 24.0981C207.969 23.9478 207.686 23.8751 207.432 23.9176C206.319 24.104 204.82 24.259 203.8 24.7167C199.999 26.421 198.843 28.4531 198.88 32.2524C198.928 37.303 202.904 40.6833 206.216 40.9461Z" fill="#D8864E"/>
<path d="M205.665 40.995C206.021 41.0232 206.371 40.9802 206.713 40.8807C203.522 40.3238 199.952 37.0391 199.906 32.255C199.869 28.4558 201.026 26.4234 204.826 24.7191C205.582 24.3801 206.601 24.2072 207.531 24.0645C207.302 23.9717 207.082 23.9327 206.882 23.9664C205.768 24.1528 204.269 24.3079 203.249 24.7655C199.448 26.4698 198.292 28.502 198.329 32.3013C198.378 37.352 202.353 40.7321 205.665 40.995Z" fill="#B77446"/>
<path d="M217.831 40.6239C217.825 40.6135 217.819 40.6028 217.812 40.5928C217.818 40.6024 217.824 40.613 217.831 40.6239Z" fill="#D8864E"/>
<path d="M207.807 50.2917C210.239 50.4106 211.51 47.1899 213.748 46.2076C215.035 45.6428 216.207 44.8239 217.105 43.6667C217.49 43.1706 217.845 41.9227 217.52 41.1879L216.65 40.6984C215.87 40.2177 215.851 41.651 215.386 40.6726C216.013 39.5433 216.29 37.3113 216.953 36.1325C217.906 34.4373 218.03 31.7939 217.47 29.6913C216.235 25.0517 212.427 22.2501 209.436 22.7602C208.481 22.9231 206.058 24.1405 208.779 25.0784C209.657 25.381 210.509 26.8915 211.072 28.0217C213.081 32.0565 206.085 36.3143 205.137 37.6259C204.046 39.1348 202.629 41.0015 202.561 42.9672C202.479 45.3587 204.444 50.1273 207.807 50.2917Z" fill="#D8864E"/>
<path d="M217.828 40.623C217.854 40.6653 217.877 40.7094 217.898 40.7557L217.901 40.7574C217.89 40.7156 217.855 40.666 217.828 40.623Z" fill="#D8864E"/>
<path d="M207.596 50.3073C207.837 50.3191 208.066 50.2978 208.286 50.2494C205.364 49.5047 203.682 45.2494 203.758 43.0337C203.826 41.0681 205.243 39.2014 206.334 37.6925C207.282 36.3809 214.278 32.1232 212.269 28.0882C211.707 26.9583 210.855 25.4477 209.977 25.145C207.255 24.2071 209.679 22.9897 210.633 22.8268C210.697 22.8159 210.761 22.8072 210.825 22.7993C210.279 22.6983 209.74 22.688 209.225 22.7758C208.27 22.9387 205.847 24.1561 208.568 25.094C209.446 25.3966 210.298 26.9072 210.861 28.0374C212.87 32.0723 205.874 36.3298 204.926 37.6416C203.835 39.1504 202.418 41.0171 202.35 42.9829C202.268 45.3741 204.233 50.143 207.596 50.3073Z" fill="#B77446"/>
<path d="M216.348 57.1728C218.567 58.3419 218.682 59.395 220.558 58.6279L222.635 57.4312C224.373 55.8287 225.292 52.0392 224.506 49.3258C223.897 47.2219 222.062 45.0441 220.126 44.3899C218.864 43.9633 218.103 44.8675 217.151 45.4749C216.052 46.1757 214.97 46.9446 214.333 48.2071C212.986 50.8768 213.096 55.4585 216.348 57.1728Z" fill="#B77446"/>
<path d="M216.692 62.3919C218.688 62.2668 221.394 60.327 222.754 58.0106C224.475 55.0794 221.842 58.7784 217.594 56.0364C216.439 55.2907 215.749 54.5115 215.385 53.2206C214.853 51.3374 215.75 49.9202 216.851 48.8036C218.351 47.2831 220.681 44.7941 221.116 42.2223C221.587 39.4454 220.077 37.4305 218.609 35.9876C217.002 34.4074 216.684 37.5814 213.729 41.3039C211.932 43.5674 210.061 45.4249 208.7 46.9492C206.472 49.4452 205.956 51.6105 206.933 54.5143C207.662 56.681 210.236 62.796 216.692 62.3919Z" fill="#ED9254"/>
<path d="M215.036 62.4409C211.516 60.8043 209.918 56.9273 209.368 55.2938C208.392 52.39 208.907 50.2248 211.135 47.7287C212.496 46.2044 214.368 44.347 216.165 42.0835C217.888 39.9126 218.714 37.929 219.422 36.9653C219.154 36.6478 218.873 36.3522 218.593 36.0774C216.986 34.4972 216.668 37.6712 213.713 41.3938C211.917 43.6573 210.045 45.5147 208.684 47.039C206.456 49.5351 205.94 51.7003 206.917 54.6041C207.581 56.5771 209.775 61.8231 215.036 62.4409Z" fill="#D8864E"/>
<path d="M214.1 62.2403C209.945 60.9001 208.121 56.5062 207.527 54.7388C206.55 51.835 207.066 49.6697 209.294 47.1737C210.655 45.6493 212.526 43.792 214.323 41.5284C216.643 38.6061 217.338 36.0224 218.306 35.8108C216.92 34.8249 216.477 37.8449 213.692 41.353C211.895 43.6166 210.024 45.474 208.663 46.9984C206.434 49.4943 205.919 51.6596 206.896 54.5634C207.52 56.418 209.496 61.1644 214.1 62.2403Z" fill="#B77446"/>
<path d="M207.18 45.7402C207.421 45.6428 207.835 44.9163 208.002 44.6831C208.313 44.2499 208.425 43.7586 208.815 43.405C209.651 42.6468 210.475 42.2928 211.102 41.2611C211.803 40.1081 212.325 38.9397 213.174 37.9052C214.028 36.865 214.952 35.7871 215.553 34.5364C216.423 32.7255 216.379 29.8241 215.036 27.9414L214.494 26.9602C214.309 26.7751 213.597 26.4922 213.351 26.5838C212.883 26.7582 213.13 27.2714 213.225 27.689C213.448 28.6649 213.698 29.6816 213.605 30.6411C213.498 31.7355 213.133 32.8016 212.674 33.7319C212.108 34.8778 210.914 35.6547 210.05 36.4737C209.085 37.3882 208.064 38.2911 207.265 39.3867C206.472 40.4758 205.837 41.4902 205.903 43.0635C205.932 43.7692 206.195 46.1379 207.18 45.7402Z" fill="#ED9254"/>
<path d="M219.718 56.1285C220.425 56.3426 221.28 56.3955 221.972 56.6626C222.403 56.829 222.923 56.5346 223.321 56.6614C223.807 56.1244 224.046 55.3185 224.383 54.6402C225.023 53.3535 225.52 51.8933 225.246 50.3169C225.049 49.1774 224.781 47.8941 223.986 46.9865C223.418 46.338 222.655 45.8717 221.936 45.5267C220.951 45.0539 220.193 45.659 219.596 46.5526C218.957 47.5099 218.609 48.2025 217.965 49.1627C217.227 50.2624 216.364 50.8552 216.732 52.5545C217.114 54.3188 218.305 55.7005 219.718 56.1285Z" fill="#D8864E"/>
<path d="M223.411 56.6937C223.38 56.6818 223.349 56.671 223.318 56.6611C223.297 56.6846 223.276 56.7084 223.254 56.7307L223.411 56.6937Z" fill="#D8864E"/>
<path d="M222.265 55.7465L222.608 55.8766C223.27 56.2557 224.401 54.9646 224.698 54.2857C225.076 53.4232 225.386 52.1981 225.388 51.1382C225.394 48.3224 223.321 46.8225 221.444 47.1123C219.595 47.3977 218.805 49.0795 218.834 51.5518C218.869 54.5398 220.657 54.7951 222.265 55.7465Z" fill="#ED9254"/>
<path d="M218.068 45.0247C217.805 45.1369 217.699 44.9494 217.594 44.5431C217.488 44.1369 217.42 43.7449 217.615 43.6683C217.811 43.5918 218.044 44.0682 218.119 44.3122C218.195 44.5563 218.308 44.9223 218.068 45.0247Z" fill="#FECC84"/>
<path d="M216.628 47.5597C216.331 47.4826 216.328 47.276 216.433 46.9032C216.537 46.5305 216.669 46.1917 216.886 46.2539C217.103 46.3161 217.081 46.8208 217.029 47.052C216.977 47.2833 216.899 47.6301 216.628 47.5597Z" fill="#FECC84"/>
<path d="M212.762 47.6103C212.674 47.2822 212.845 47.2279 213.212 47.2459C213.579 47.2637 213.931 47.3185 213.99 47.5597C214.05 47.801 213.615 47.9011 213.394 47.9037C213.173 47.9063 212.842 47.9099 212.762 47.6103Z" fill="#FECC84"/>
<path d="M214.413 46.5412C214.51 46.2462 214.693 46.3214 215.011 46.5782C215.328 46.8349 215.614 47.1086 215.537 47.3219C215.461 47.5353 215.019 47.3183 214.821 47.1734C214.622 47.0284 214.325 46.8109 214.413 46.5412Z" fill="#FECC84"/>
<path d="M216.536 45.1128C216.614 45.4424 216.44 45.4899 216.073 45.4586C215.705 45.4273 215.353 45.3597 215.301 45.1176C215.248 44.8753 215.688 44.7918 215.91 44.7975C216.131 44.8031 216.464 44.8116 216.536 45.1128Z" fill="#FECC84"/>
<path d="M215.032 49.7453C214.842 49.9674 214.686 49.8285 214.455 49.4752C214.223 49.1218 214.029 48.7666 214.173 48.6082C214.316 48.4497 214.683 48.8173 214.832 49.0244C214.982 49.2314 215.206 49.5421 215.032 49.7453Z" fill="#FECC84"/>
<path d="M215.482 29.7571C215.296 29.9844 215.138 29.8487 214.901 29.4998C214.663 29.1508 214.464 28.799 214.604 28.6368C214.744 28.4746 215.116 28.8347 215.269 29.0388C215.422 29.243 215.651 29.5494 215.482 29.7571Z" fill="#FECC84"/>
<path d="M215.156 32.8767C214.873 32.9346 214.796 32.7345 214.751 32.324C214.706 31.9134 214.698 31.5238 214.906 31.4873C215.115 31.4509 215.278 31.9528 215.317 32.2016C215.356 32.4505 215.415 32.8238 215.156 32.8767Z" fill="#FECC84"/>
<path d="M211.856 34.6596C211.662 34.3792 211.79 34.2492 212.111 34.1023C212.432 33.9554 212.755 33.8509 212.893 34.0595C213.031 34.2682 212.694 34.561 212.505 34.6624C212.316 34.7639 212.033 34.9159 211.856 34.6596Z" fill="#FECC84"/>
<path d="M212.89 32.8748C212.867 32.5434 213.051 32.5349 213.417 32.643C213.783 32.7508 214.126 32.8898 214.138 33.1321C214.149 33.3746 213.692 33.3611 213.469 33.3086C213.246 33.2561 212.912 33.1774 212.89 32.8748Z" fill="#FECC84"/>
<path d="M213.103 36.4715C213.399 36.5532 213.4 36.7596 213.29 37.1298C213.18 37.5 213.044 37.8357 212.827 37.7701C212.611 37.7043 212.639 37.2014 212.695 36.9715C212.75 36.7417 212.832 36.3968 213.103 36.4715Z" fill="#FECC84"/>
<path d="M210.497 36.9567C210.302 36.6766 210.43 36.5463 210.751 36.3986C211.072 36.2508 211.394 36.1454 211.532 36.354C211.671 36.5624 211.334 36.856 211.146 36.958C210.957 37.0598 210.675 37.2125 210.497 36.9567Z" fill="#FECC84"/>
<path d="M212.109 39.0766C212.407 39.1166 212.431 39.325 212.367 39.7148C212.303 40.1046 212.209 40.4635 211.991 40.4281C211.772 40.3928 211.742 39.8805 211.769 39.6402C211.796 39.4002 211.837 39.0399 212.109 39.0766Z" fill="#FECC84"/>
<path d="M210.078 38.4285C210.055 38.0971 210.239 38.0887 210.604 38.1966C210.97 38.3045 211.314 38.4435 211.326 38.6859C211.337 38.9282 210.879 38.9148 210.656 38.8624C210.433 38.8099 210.099 38.7312 210.078 38.4285Z" fill="#FECC84"/>
<path d="M211.087 40.8104C211.384 40.8921 211.384 41.0985 211.275 41.4687C211.165 41.8389 211.028 42.1747 210.812 42.1089C210.595 42.0433 210.624 41.5403 210.679 41.3105C210.734 41.0805 210.817 40.7357 211.087 40.8104Z" fill="#FECC84"/>
<path d="M208.485 41.2945C208.29 41.0146 208.418 40.8843 208.739 40.7365C209.06 40.5887 209.382 40.4833 209.521 40.6918C209.659 40.9004 209.323 41.194 209.134 41.2959C208.946 41.3977 208.663 41.5505 208.485 41.2945Z" fill="#FECC84"/>
<path d="M208.066 42.7673C208.043 42.436 208.227 42.4276 208.593 42.5355C208.958 42.6434 209.302 42.7823 209.314 43.0247C209.325 43.2671 208.867 43.2537 208.644 43.2011C208.422 43.1486 208.087 43.07 208.066 42.7673Z" fill="#FECC84"/>
<path d="M210.108 43.4049C209.814 43.4135 209.763 43.2068 209.773 42.8024C209.784 42.3979 209.827 42.0196 210.043 42.0192C210.259 42.019 210.356 42.5319 210.362 42.7791C210.368 43.0263 210.376 43.3971 210.108 43.4049Z" fill="#FECC84"/>
<path d="M207.346 43.2664C207.639 43.2549 207.692 43.4613 207.685 43.8664C207.678 44.2713 207.637 44.6505 207.421 44.6529C207.206 44.6554 207.105 44.1427 207.097 43.8953C207.09 43.6479 207.078 43.2768 207.346 43.2664Z" fill="#FECC84"/>
<path d="M209.863 44.9182C209.991 45.2354 209.832 45.3179 209.474 45.3591C209.117 45.4002 208.769 45.4017 208.68 45.1675C208.591 44.9332 208.999 44.7617 209.213 44.7236C209.426 44.6854 209.746 44.6283 209.863 44.9182Z" fill="#FECC84"/>
<path d="M207.41 46.4406C207.538 46.7579 207.379 46.8403 207.021 46.8814C206.664 46.9225 206.316 46.9241 206.227 46.6898C206.138 46.4555 206.546 46.2842 206.759 46.2459C206.973 46.2079 207.293 46.1507 207.41 46.4406Z" fill="#FECC84"/>
<path d="M210.529 39.6962C210.82 39.8165 210.798 40.018 210.646 40.3636C210.493 40.7092 210.318 41.0177 210.107 40.9239C209.895 40.8301 209.98 40.3437 210.061 40.1274C210.142 39.9107 210.264 39.5861 210.529 39.6962Z" fill="#FECC84"/>
<path d="M205.633 30.9853C205.923 31.1057 205.901 31.307 205.749 31.6526C205.597 31.9983 205.422 32.3068 205.21 32.213C204.999 32.119 205.084 31.6328 205.165 31.4163C205.246 31.1999 205.367 30.8751 205.633 30.9853Z" fill="#FECC84"/>
<path d="M206.045 34.8492C206.039 35.1768 205.853 35.1651 205.493 35.0195C205.133 34.8739 204.798 34.7 204.808 34.4609C204.818 34.2219 205.279 34.2849 205.499 34.3605C205.719 34.4362 206.05 34.5498 206.045 34.8492Z" fill="#FECC84"/>
<path d="M204.029 34.8249C204.024 35.1525 203.837 35.1408 203.477 34.9952C203.118 34.8495 202.783 34.6756 202.792 34.4366C202.802 34.1975 203.263 34.2605 203.483 34.3362C203.704 34.412 204.034 34.5256 204.029 34.8249Z" fill="#FECC84"/>
<path d="M204.132 36.3088C204.354 36.5631 204.246 36.7136 203.951 36.9104C203.657 37.1073 203.356 37.2615 203.197 37.0713C203.037 36.8812 203.329 36.5346 203.5 36.4037C203.672 36.273 203.928 36.0767 204.132 36.3088Z" fill="#FECC84"/>
<path d="M209.894 30.4695C210.189 30.5609 210.184 30.7664 210.064 31.131C209.943 31.4956 209.797 31.8251 209.581 31.7523C209.366 31.6795 209.409 31.1799 209.47 30.9531C209.532 30.7263 209.624 30.3859 209.894 30.4695Z" fill="#FECC84"/>
<path d="M205.101 30.2531C204.816 30.1117 204.851 29.9146 205.025 29.585C205.2 29.2554 205.396 28.9643 205.603 29.0735C205.811 29.1826 205.695 29.6563 205.599 29.8638C205.504 30.0712 205.361 30.3825 205.101 30.2531Z" fill="#FECC84"/>
<path d="M213.111 39.2659C212.905 38.9956 213.025 38.8569 213.336 38.6892C213.647 38.5215 213.961 38.3962 214.108 38.5979C214.255 38.7995 213.936 39.1149 213.754 39.2286C213.572 39.3423 213.299 39.5129 213.111 39.2659Z" fill="#FECC84"/>
<path d="M215.166 35.662C214.882 35.5188 214.917 35.3221 215.094 34.9939C215.271 34.6657 215.468 34.3762 215.675 34.4865C215.882 34.5969 215.763 35.0695 215.667 35.2761C215.571 35.4827 215.426 35.7928 215.166 35.662Z" fill="#FECC84"/>
<path d="M214.193 30.531C214.38 30.8172 214.247 30.9417 213.92 31.0759C213.593 31.2101 213.266 31.3021 213.134 31.0894C213.001 30.8765 213.349 30.598 213.541 30.5041C213.734 30.4104 214.023 30.2697 214.193 30.531Z" fill="#FECC84"/>
<path d="M214.574 35.7251C214.491 36.0273 214.307 35.9614 213.98 35.7208C213.654 35.48 213.359 35.2202 213.425 35.0012C213.491 34.7824 213.939 34.9764 214.142 35.1114C214.345 35.2465 214.65 35.449 214.574 35.7251Z" fill="#FECC84"/>
<path d="M212.804 50.7869C212.524 50.6297 212.569 50.4367 212.76 50.1204C212.952 49.8042 213.163 49.5274 213.366 49.6477C213.57 49.7681 213.43 50.2306 213.324 50.4305C213.219 50.6304 213.06 50.9304 212.804 50.7869Z" fill="#FECC84"/>
<path d="M210.914 49.6782C210.839 49.3481 211.014 49.3034 211.382 49.3403C211.75 49.3773 212.101 49.4499 212.151 49.6924C212.2 49.9349 211.759 50.0116 211.537 50.0025C211.315 49.9934 210.982 49.9798 210.914 49.6782Z" fill="#FECC84"/>
<path d="M211.369 51.5738C211.294 51.2436 211.469 51.199 211.837 51.2358C212.205 51.2728 212.557 51.3455 212.606 51.5881C212.656 51.8305 212.214 51.9073 211.992 51.898C211.77 51.8889 211.437 51.8753 211.369 51.5738Z" fill="#FECC84"/>
<path d="M214.351 53.6539C214.349 53.9822 214.163 53.9729 213.802 53.8319C213.442 53.6909 213.105 53.5211 213.112 53.2816C213.119 53.0421 213.58 53.0989 213.801 53.1719C214.022 53.2446 214.353 53.3539 214.351 53.6539Z" fill="#FECC84"/>
<path d="M212.152 52.5451C212.389 52.7823 212.293 52.9433 212.016 53.1672C211.74 53.3912 211.454 53.5727 211.284 53.3947C211.113 53.2168 211.377 52.8422 211.537 52.6955C211.696 52.5486 211.936 52.3287 212.152 52.5451Z" fill="#FECC84"/>
<path d="M213.294 54.8407C213.338 55.1728 213.157 55.1959 212.789 55.1166C212.421 55.0373 212.073 54.9246 212.046 54.6813C212.019 54.4379 212.472 54.4148 212.695 54.4498C212.919 54.4848 213.253 54.5374 213.294 54.8407Z" fill="#FECC84"/>
<path d="M210.796 53.7369C211.094 53.8067 211.101 54.0141 211.005 54.3905C210.908 54.767 210.783 55.1102 210.566 55.0531C210.348 54.9961 210.36 54.4896 210.407 54.2562C210.454 54.0231 210.525 53.6731 210.796 53.7369Z" fill="#FECC84"/>
<path d="M208.685 38.3972C208.405 38.2401 208.449 38.047 208.641 37.7307C208.833 37.4145 209.044 37.1377 209.247 37.2581C209.45 37.3785 209.311 37.8409 209.205 38.0408C209.1 38.2407 208.941 38.5407 208.685 38.3972Z" fill="#FECC84"/>
<path d="M207.242 39.184C207.167 38.854 207.342 38.8092 207.71 38.8462C208.078 38.8832 208.43 38.9557 208.479 39.1983C208.529 39.4408 208.087 39.5175 207.865 39.5084C207.643 39.4993 207.31 39.4857 207.242 39.184Z" fill="#FECC84"/>
<path d="M208.025 40.1556C208.262 40.3927 208.166 40.5538 207.889 40.7777C207.613 41.0016 207.327 41.1831 207.157 41.0051C206.986 40.8273 207.25 40.4525 207.41 40.3059C207.569 40.159 207.809 39.9389 208.025 40.1556Z" fill="#FECC84"/>
<path d="M206.675 41.3472C206.973 41.4169 206.98 41.6243 206.884 42.0008C206.787 42.3773 206.662 42.7204 206.445 42.6633C206.227 42.6064 206.239 42.0998 206.286 41.8666C206.333 41.6334 206.404 41.2835 206.675 41.3472Z" fill="#FECC84"/>
<path d="M203.405 31.611C203.21 31.3309 203.338 31.2006 203.659 31.0528C203.98 30.9051 204.302 30.7997 204.44 31.0083C204.579 31.2167 204.242 31.5103 204.054 31.6123C203.865 31.7141 203.583 31.8669 203.405 31.611Z" fill="#FECC84"/>
<path d="M202.99 33.0828C202.967 32.7514 203.151 32.743 203.516 32.8509C203.882 32.9588 204.226 33.0978 204.238 33.3402C204.249 33.5825 203.791 33.5691 203.568 33.5167C203.346 33.4642 203.011 33.3855 202.99 33.0828Z" fill="#FECC84"/>
<path d="M203.601 28.7126C203.321 28.5555 203.365 28.3624 203.557 28.0461C203.749 27.73 203.96 27.4531 204.163 27.5735C204.366 27.6939 204.227 28.1563 204.121 28.3563C204.015 28.5562 203.857 28.8561 203.601 28.7126Z" fill="#FECC84"/>
<path d="M202.162 29.4996C202.087 29.1694 202.262 29.1247 202.63 29.1616C202.998 29.1986 203.349 29.2712 203.399 29.5137C203.449 29.7563 203.007 29.8329 202.785 29.8238C202.563 29.8147 202.23 29.8012 202.162 29.4996Z" fill="#FECC84"/>
<path d="M202.949 30.471C203.186 30.708 203.09 30.8692 202.813 31.093C202.537 31.317 202.251 31.4984 202.081 31.3206C201.91 31.1426 202.174 30.768 202.334 30.6212C202.493 30.4745 202.733 30.2544 202.949 30.471Z" fill="#FECC84"/>
<path d="M201.593 31.6627C201.891 31.7324 201.898 31.9397 201.802 32.3163C201.705 32.6927 201.58 33.0358 201.363 32.9789C201.145 32.9219 201.157 32.4152 201.204 32.182C201.251 31.9488 201.322 31.5989 201.593 31.6627Z" fill="#FECC84"/>
<path d="M207.08 29.3658C207.292 29.6305 207.176 29.7736 206.871 29.9521C206.566 30.1305 206.256 30.2664 206.104 30.069C205.952 29.8715 206.262 29.5445 206.44 29.4243C206.618 29.3043 206.886 29.1241 207.08 29.3658Z" fill="#FECC84"/>
<path d="M207.387 27.8431C207.434 28.175 207.254 28.2005 206.886 28.1253C206.518 28.0502 206.169 27.9414 206.139 27.698C206.11 27.4547 206.562 27.4261 206.785 27.4586C207.009 27.491 207.344 27.5397 207.387 27.8431Z" fill="#FECC84"/>
<path d="M205.492 33.5075C205.289 33.7152 205.139 33.5673 204.925 33.2026C204.71 32.8378 204.534 32.4735 204.686 32.3259C204.839 32.1784 205.189 32.5661 205.329 32.7808C205.468 32.9956 205.678 33.3177 205.492 33.5075Z" fill="#FECC84"/>
<path d="M207.107 32.3075C207.395 32.4402 207.365 32.6391 207.2 32.9756C207.035 33.3122 206.847 33.6108 206.638 33.5081C206.429 33.4054 206.532 32.926 206.621 32.7147C206.711 32.5033 206.845 32.1862 207.107 32.3075Z" fill="#FECC84"/>
<path d="M208.462 31.3821C208.56 31.7083 208.391 31.7695 208.026 31.766C207.661 31.7626 207.309 31.7216 207.242 31.4816C207.176 31.2415 207.605 31.1237 207.824 31.1124C208.043 31.1012 208.372 31.0844 208.462 31.3821Z" fill="#FECC84"/>
<path d="M207.618 30.4739C207.367 30.2566 207.45 30.0852 207.706 29.8339C207.962 29.5826 208.229 29.3735 208.411 29.5372C208.592 29.7011 208.359 30.1032 208.213 30.2658C208.067 30.4284 207.848 30.6724 207.618 30.4739Z" fill="#FECC84"/>
<path d="M208.862 29.1468C208.564 29.1038 208.541 28.8954 208.609 28.5068C208.676 28.1182 208.773 27.7606 208.992 27.7981C209.21 27.8357 209.236 28.3477 209.207 28.5872C209.178 28.8268 209.134 29.1861 208.862 29.1468Z" fill="#FECC84"/>
<path d="M214.209 55.3267C214.506 55.3964 214.513 55.6039 214.417 55.9803C214.32 56.3569 214.195 56.7 213.978 56.6429C213.76 56.5861 213.772 56.0794 213.819 55.8461C213.866 55.6129 213.937 55.263 214.209 55.3267Z" fill="#FECC84"/>
<path d="M215.685 57.6304C215.982 57.7001 215.99 57.9076 215.893 58.2841C215.797 58.6606 215.672 59.0036 215.455 58.9466C215.237 58.8897 215.249 58.3831 215.296 58.1498C215.343 57.9164 215.413 57.5667 215.685 57.6304Z" fill="#FECC84"/>
<path d="M218.606 58.4346C218.64 58.7665 218.458 58.7826 218.09 58.6895C217.723 58.5962 217.377 58.4709 217.357 58.2279C217.338 57.9848 217.793 57.9793 218.017 58.0227C218.24 58.0662 218.575 58.1313 218.606 58.4346Z" fill="#FECC84"/>
<path d="M211.685 56.2094C211.711 55.8864 211.898 55.9126 212.252 56.0847C212.605 56.2569 212.931 56.4549 212.907 56.6901C212.882 56.9255 212.421 56.8269 212.204 56.7349C211.987 56.6427 211.661 56.5045 211.685 56.2094Z" fill="#FECC84"/>
<path d="M213.711 57.7121C213.995 57.6576 214.071 57.8584 214.112 58.2689C214.153 58.6792 214.158 59.0682 213.948 59.1022C213.739 59.1362 213.58 58.633 213.544 58.3841C213.507 58.1352 213.452 57.7619 213.711 57.7121Z" fill="#FECC84"/>
<path d="M213.556 52.0418C213.276 51.8846 213.321 51.6915 213.512 51.3753C213.704 51.0591 213.915 50.7823 214.118 50.9026C214.322 51.0231 214.182 51.4855 214.076 51.6854C213.971 51.8853 213.812 52.1853 213.556 52.0418Z" fill="#FECC84"/>
<path d="M219.418 51.894C219.343 51.5638 219.518 51.5192 219.886 51.5562C220.253 51.593 220.605 51.6657 220.655 51.9083C220.704 52.1507 220.263 52.2275 220.041 52.2184C219.819 52.2093 219.486 52.1955 219.418 51.894Z" fill="#FECC84"/>
<path d="M223.516 53.1652C223.218 53.0994 223.208 52.8918 223.301 52.5133C223.393 52.1348 223.513 51.7895 223.731 51.8435C223.949 51.8976 223.943 52.4051 223.898 52.6395C223.854 52.8737 223.788 53.2253 223.516 53.1652Z" fill="#FECC84"/>
<path d="M219.871 53.7896C219.796 53.4594 219.971 53.4147 220.339 53.4517C220.707 53.4886 221.059 53.5612 221.108 53.8039C221.158 54.0463 220.716 54.123 220.494 54.1139C220.272 54.1048 219.939 54.0911 219.871 53.7896Z" fill="#FECC84"/>
<path d="M222.139 49.9812C221.841 49.94 221.817 49.7317 221.883 49.3423C221.948 48.9529 222.043 48.5945 222.262 48.6306C222.48 48.6668 222.509 49.179 222.481 49.419C222.453 49.659 222.411 50.0188 222.139 49.9812Z" fill="#FECC84"/>
<path d="M222.062 54.2576C221.782 54.1005 221.826 53.9074 222.018 53.5911C222.209 53.2749 222.421 52.9981 222.624 53.1184C222.827 53.2388 222.688 53.7013 222.582 53.9012C222.477 54.1012 222.318 54.4012 222.062 54.2576Z" fill="#FECC84"/>
<path d="M223.138 51.1308C222.858 50.9736 222.903 50.7806 223.094 50.4642C223.286 50.1479 223.497 49.8711 223.7 49.9914C223.904 50.1119 223.764 50.5743 223.658 50.7742C223.553 50.9744 223.394 51.2744 223.138 51.1308Z" fill="#FECC84"/>
<path d="M221.152 53.7029C220.854 53.6544 220.834 53.446 220.907 53.0598C220.981 52.6735 221.084 52.3188 221.302 52.3603C221.521 52.4019 221.539 52.913 221.506 53.1515C221.473 53.3899 221.424 53.7473 221.152 53.7029Z" fill="#FECC84"/>
<path d="M222.766 52.3778C222.562 52.585 222.413 52.4371 222.199 52.0717C221.985 51.7066 221.809 51.3419 221.962 51.1949C222.115 51.0477 222.464 51.4361 222.604 51.651C222.743 51.8661 222.952 52.1886 222.766 52.3778Z" fill="#FECC84"/>
<path d="M221.689 50.1032C221.753 50.4343 221.576 50.4716 221.208 50.4196C220.839 50.3677 220.488 50.2809 220.447 50.0378C220.405 49.7947 220.851 49.7367 221.074 49.755C221.296 49.7733 221.631 49.8005 221.689 50.1032Z" fill="#FECC84"/>
<path d="M232.16 43.0524C233.213 44.0164 233.091 44.9147 234.307 46.2511C234.451 46.4091 233.976 46.5835 233.876 46.7721C233.734 47.0391 233.157 46.5623 232.856 46.5416C232.554 46.5209 232.275 46.3837 232.008 46.242C230.547 45.4666 228.402 44.2444 227.721 42.6499C227.551 42.2516 226.281 39.7958 226.838 39.8331C228.423 39.9393 229.313 41.6629 229.753 41.9132C230.712 42.4584 231.077 42.0603 232.16 43.0524Z" fill="#AD3E3B"/>
<path d="M229.502 43.8556C227.898 42.61 227.76 38.5113 224.044 38.9613C220.328 39.4113 215.988 44.8498 215.46 48.3313C214.932 51.8129 218.039 55.3311 220.378 57.2381C223.109 59.4656 228.248 61.4199 232.306 57.291C235.856 53.6788 237.681 49.3975 234.451 46.3847C232.484 44.55 232.13 45.8959 229.502 43.8556Z" fill="#D34D46"/>
<path d="M235.885 48.5532C235.415 50.4889 234.053 52.5081 232.24 54.3528C228.181 58.4816 223.043 56.5273 220.311 54.3C218.516 52.8363 216.269 50.4239 215.559 47.8074C215.516 47.9859 215.481 48.1609 215.455 48.331C214.927 51.8125 218.034 55.3307 220.373 57.2378C223.105 59.4652 228.243 61.4195 232.301 57.2907C235.065 54.479 236.782 51.2618 235.885 48.5532Z" fill="#AD3E3B"/>
<path opacity="0.27" d="M223.621 41.3975C222.701 41.5574 221.857 42.0525 221.202 42.718C220.82 43.1059 220.489 43.5722 220.394 44.1082C220.298 44.6441 220.488 45.2558 220.952 45.5399C221.071 45.6127 221.208 45.6628 221.347 45.6598C221.544 45.6556 221.721 45.5488 221.888 45.4454C222.673 44.9594 223.501 44.4625 224.422 44.4064C224.862 44.3797 225.305 44.4562 225.743 44.4141C226.182 44.3722 226.647 44.1753 226.832 43.7757C227.119 43.1586 226.627 42.2751 226.143 41.8947C225.475 41.3701 224.429 41.257 223.621 41.3975Z" fill="white"/>
<path opacity="0.27" d="M220.026 46.0433C219.721 45.7835 219.212 45.8664 218.952 46.1709C218.691 46.4754 218.667 46.9369 218.827 47.3041C218.911 47.4982 219.062 47.6842 219.27 47.7238C219.42 47.7524 219.575 47.6989 219.71 47.6253C219.959 47.4896 220.172 47.2755 220.271 47.0093C220.37 46.7432 220.341 46.4245 220.166 46.2011L220.026 46.0433Z" fill="white"/>
<path d="M229.104 43.4607C229.104 43.4607 230.965 41.7235 232.11 41.0748C233.255 40.4261 235.556 39.8729 235.556 39.8729L235.927 40.8454C235.927 40.8454 234.184 40.8642 232.686 41.6482C231.639 42.1961 229.501 43.8554 229.501 43.8554L229.104 43.4607Z" fill="#60443E"/>
<path d="M232.684 41.6479C232.684 41.6479 235.803 41.4871 237.478 42.9195C239.72 44.8367 240.894 47.0121 240.894 47.0121C240.894 47.0121 237.603 47.8499 235.581 46.5501C233.559 45.2504 231.957 42.084 231.957 42.084L232.684 41.6479Z" fill="#436B49"/>
<path opacity="0.27" d="M236.01 43.278C235.964 43.2846 235.917 43.2949 235.885 43.327C235.843 43.3697 235.837 43.4416 235.843 43.5084C235.866 43.7329 236.008 43.9442 236.178 44.1007C236.348 44.2571 236.547 44.3697 236.737 44.4928C237.183 44.7799 237.596 45.1329 237.96 45.5362C238.089 45.6788 238.215 45.8314 238.377 45.9237C238.881 46.2115 239.019 45.6299 238.953 45.2208C238.89 44.8394 238.655 44.6425 238.368 44.4104C237.692 43.864 236.851 43.1574 236.01 43.278Z" fill="white"/>
<path d="M267.007 47.7013C266.51 46.5521 265.942 45.6058 266.048 44.6387C266.266 42.6487 268.582 37.8121 268.582 37.8121L263.279 35.2289C263.279 35.2289 260.897 40.0328 259.464 41.4309C258.768 42.1103 257.673 42.2464 256.461 42.5633C254.165 43.1037 230.92 82.9194 230.92 82.9194L228.734 87.4059C228.734 87.4059 227.223 90.5068 230.046 91.7787C232.525 92.8953 233.115 90.4218 234.39 91.1148C235.664 91.8078 234.835 92.4466 235.332 93.5925C235.912 94.933 238.429 96.1592 239.843 95.7906C241.052 95.4753 241.044 94.429 242.375 95.0054C243.706 95.5818 242.122 97.5712 244.529 98.8351C247.27 100.275 248.781 97.1737 248.781 97.1737L250.967 92.6873C250.967 92.6873 267.997 49.8432 267.007 47.7013Z" fill="#9ED2F2"/>
<path d="M245.229 97.3982C242.822 96.1342 244.406 94.145 243.075 93.5686C241.744 92.9921 241.752 94.0384 240.543 94.3537C239.13 94.7225 236.613 93.496 236.032 92.1556C235.535 91.0096 236.364 90.3708 235.09 89.6779C233.816 88.9849 233.225 91.4583 230.747 90.3417C227.923 89.07 229.434 85.969 229.434 85.969L228.734 87.4066C228.734 87.4066 227.223 90.5075 230.046 91.7793C232.525 92.8959 233.115 90.4225 234.39 91.1154C235.664 91.8085 234.835 92.4472 235.332 93.5932C235.912 94.9336 238.429 96.1598 239.843 95.7912C241.051 95.476 241.044 94.4297 242.375 95.0062C243.706 95.5825 242.122 97.5718 244.529 98.8357C247.27 100.275 248.781 97.1743 248.781 97.1743L249.482 95.7368C249.482 95.7368 247.971 98.8377 245.229 97.3982Z" fill="#88B4D3"/>
<path d="M267.005 47.7017C266.509 46.5525 265.941 45.6062 266.046 44.6391C266.264 42.6491 268.58 37.8125 268.58 37.8125L266.249 36.677C266.249 36.677 263.934 41.5136 263.716 43.5035C263.61 44.4706 264.178 45.4172 264.675 46.5662C265.665 48.708 248.635 91.5518 248.635 91.5518L246.448 96.0383C246.448 96.0383 245.435 98.1169 243.563 98.08C243.779 98.3473 244.085 98.6035 244.527 98.8353C247.268 100.275 248.779 97.1739 248.779 97.1739L250.965 92.6875C250.965 92.6875 267.995 49.8436 267.005 47.7017Z" fill="#88B4D3"/>
<path d="M267.879 39.558L262.351 36.8643C261.915 36.6516 261.733 36.1256 261.946 35.6894L263.315 32.88C263.527 32.4436 264.053 32.2623 264.489 32.4748L270.018 35.1685C270.454 35.3811 270.636 35.907 270.423 36.3432L269.054 39.1528C268.842 39.5892 268.316 39.7706 267.879 39.558Z" fill="#304298"/>
<path d="M267.709 40.7248L261.594 37.7452C261.44 37.6704 261.376 37.4851 261.451 37.3315L261.497 37.2372C261.572 37.0835 261.757 37.0197 261.911 37.0945L268.026 40.0741C268.18 40.1489 268.244 40.3342 268.169 40.4879L268.123 40.5821C268.048 40.7359 267.863 40.7997 267.709 40.7248Z" fill="#304298"/>
<path d="M264.499 33.2697L264.014 33.0332L262.184 36.79L262.67 37.0265L264.499 33.2697Z" fill="#223466"/>
<path d="M265.546 33.7767L265.061 33.54L263.23 37.2964L263.716 37.533L265.546 33.7767Z" fill="#223466"/>
<path d="M266.745 34.3636L266.26 34.127L264.429 37.8833L264.915 38.12L266.745 34.3636Z" fill="#223466"/>
<path d="M267.921 34.9241L267.436 34.6875L265.605 38.4438L266.091 38.6804L267.921 34.9241Z" fill="#223466"/>
<path d="M268.991 35.4436L268.506 35.207L266.676 38.9635L267.161 39.2L268.991 35.4436Z" fill="#223466"/>
<path d="M269.841 35.8606L269.355 35.624L267.525 39.3804L268.011 39.617L269.841 35.8606Z" fill="#223466"/>
<path d="M269.943 35.651L264.108 32.8079C264.03 32.7699 263.997 32.6751 264.035 32.5972C264.073 32.5193 264.168 32.4866 264.246 32.5246L270.081 35.3677C270.159 35.4057 270.192 35.5005 270.154 35.5784C270.116 35.6563 270.021 35.689 269.943 35.651Z" fill="#405CC6"/>
<path opacity="0.58" d="M260.98 41.1536C260.603 41.7811 260.129 42.3786 259.486 42.7275C259.195 42.8847 258.877 42.9881 258.598 43.1659C258.32 43.3435 258.076 43.6226 258.06 43.9524C258.035 44.4914 258.656 44.8811 259.191 44.8095C259.726 44.7381 260.162 44.3542 260.531 43.9605C261.358 43.0774 262.031 42.0574 262.592 40.9854C262.782 40.6225 263.395 39.0372 262.493 38.9386C261.894 38.8733 261.241 40.7194 260.98 41.1536Z" fill="white"/>
<path opacity="0.58" d="M236.942 91.4368C236.849 91.8971 236.8 92.4579 237.093 92.5708C237.269 92.6385 237.512 92.5002 237.699 92.2943C237.886 92.0883 238.031 91.824 238.17 91.566C238.684 90.6182 239.937 88.7051 238.716 88.5462C237.614 88.4028 237.16 90.3645 236.942 91.4368Z" fill="white"/>
<path d="M247.17 55.7724L238.707 69.772L256.52 78.4514L262.33 62.9289L247.17 55.7724Z" fill="#304298"/>
<path d="M246.145 57.4708L261.593 64.9974L261.083 66.3797L245.384 58.7304L246.145 57.4708Z" fill="#5974AA"/>
<path d="M240.394 66.9858L257.687 75.4116L256.964 77.2723L239.379 68.704L240.394 66.9858Z" fill="#5974AA"/>
<path opacity="0.58" d="M256.591 46.3765C255.979 46.2143 255.541 46.2955 254.252 48.6304C252.964 50.9653 235.414 80.0867 235.012 80.7568C234.436 81.7161 234.132 83.3492 235.066 83.9658C235.939 84.5417 236.865 84.8351 238.212 82.6077C239.56 80.3803 255.681 50.564 256.224 49.5762C256.766 48.5885 257.652 46.6582 256.591 46.3765Z" fill="white"/>
<path opacity="0.58" d="M230.13 88.1177C230.058 88.5888 230.047 89.168 230.4 89.3097C230.611 89.3947 230.884 89.2708 231.086 89.0721C231.288 88.8733 231.434 88.6104 231.577 88.3534C232.099 87.4099 233.407 85.5232 231.965 85.2571C230.666 85.0172 230.295 87.0201 230.13 88.1177Z" fill="white"/>
<path d="M187.571 84.4893C185.715 94.2909 186.279 104.369 186.85 114.329C186.982 116.631 187.177 119.103 188.636 120.889C190.548 123.23 193.927 123.597 196.944 123.788C218.725 125.165 240.507 126.541 262.289 127.918C264.31 128.045 266.816 127.904 267.68 126.073C268.341 124.67 267.627 123.046 267.066 121.6C266.111 119.136 265.598 116.501 265.558 113.859C265.479 108.677 267.19 103.663 268.297 98.601C269.77 91.8678 270.185 84.9042 269.521 78.0438C268.619 68.7147 265.742 59.397 267.164 50.1329C263.587 51.6655 259.67 52.2062 255.794 52.5488C244.191 53.5744 232.444 52.9502 221.015 50.701C217.127 49.9358 213.232 48.9677 209.716 47.1395C207.833 46.1603 206.053 44.9224 204.561 43.4074C203.278 42.1051 202.382 39.5215 200.678 41.391C199.633 42.5385 199.563 47.0408 199.145 48.6479C198.529 51.0133 197.796 53.3464 197.01 55.6605C193.763 65.2309 189.462 74.5057 187.571 84.4893Z" fill="#E3D8C6"/>
<path d="M267.068 121.6C266.113 119.136 265.599 116.502 265.559 113.859C265.481 108.678 267.192 103.664 268.299 98.6017C269.772 91.8686 270.186 84.9049 269.523 78.0444C268.621 68.7153 265.743 59.3976 267.165 50.1336C264.155 51.4235 260.903 52.0108 257.638 52.3687C257.896 59.32 259.677 66.2952 260.352 73.277C261.015 80.1374 260.601 87.1011 259.128 93.8343C258.02 98.8963 256.31 103.911 256.388 109.092C256.428 111.734 256.942 114.369 257.897 116.833C258.458 118.279 259.172 119.903 258.51 121.306C257.647 123.137 255.14 123.278 253.12 123.151C231.338 121.774 209.556 120.398 187.774 119.021C187.714 119.017 187.653 119.013 187.592 119.009C187.839 119.687 188.174 120.323 188.637 120.89C190.55 123.231 193.928 123.598 196.945 123.789C218.727 125.165 240.509 126.542 262.291 127.918C264.311 128.046 266.818 127.905 267.681 126.074C268.343 124.67 267.629 123.047 267.068 121.6Z" fill="#C9C0B1"/>
<path d="M265.55 113.805C265.529 112.527 265.617 111.26 265.777 110C265.655 109.994 265.533 109.991 265.41 109.992C264.094 110.003 262.811 110.389 261.502 110.522C259.482 110.728 257.456 110.33 255.449 110.017C239.687 107.561 223.626 110.315 207.673 110.32C203.219 110.321 198.701 110.057 194.368 108.956C191.873 108.322 189.127 106.685 186.431 106.63C186.54 109.219 186.691 111.807 186.842 114.386C186.978 116.689 187.176 119.16 188.638 120.944C190.554 123.283 193.933 123.645 196.95 123.831C218.734 125.177 240.517 126.523 262.301 127.868C264.322 127.993 266.828 127.848 267.689 126.016C268.349 124.612 267.632 122.989 267.069 121.544C266.111 119.081 265.594 116.447 265.55 113.805Z" fill="#F7A037"/>
<path d="M267.065 121.622C266.208 119.411 265.708 117.063 265.585 114.695C265.569 114.405 265.557 114.116 265.553 113.826C265.531 112.549 265.619 111.282 265.78 110.022C265.658 110.016 265.536 110.013 265.413 110.014C264.097 110.025 262.814 110.411 261.505 110.544C259.812 110.716 258.115 110.465 256.429 110.195C256.575 112.472 257.069 114.727 257.894 116.855C258.454 118.301 259.169 119.925 258.507 121.328C257.644 123.159 255.137 123.3 253.117 123.172C231.335 121.796 209.553 120.419 187.771 119.043C187.711 119.039 187.65 119.035 187.589 119.031C187.836 119.709 188.172 120.344 188.634 120.911C190.547 123.252 193.925 123.62 196.942 123.81C206.816 124.434 216.69 125.058 226.564 125.682C238.477 126.418 250.391 127.154 262.304 127.89C264.324 128.015 266.831 127.87 267.692 126.038C267.773 125.866 267.833 125.691 267.875 125.513C268.148 124.255 267.55 122.872 267.065 121.622Z" fill="#DD8C33"/>
<path d="M212.553 77.3369C213.887 80.7477 214.175 84.4179 214.5 88.03C214.824 91.6419 215.215 95.3179 216.729 98.6631C218.244 102.008 221.078 105.028 224.805 105.991C226.966 106.549 229.245 106.386 231.479 106.322C234.316 106.241 237.159 106.327 239.987 106.58C242.748 106.827 245.969 107.082 247.826 105.17C248.872 104.093 249.197 102.571 249.405 101.121C249.775 98.5545 249.909 95.9553 249.807 93.3621C248.663 94.0768 247.519 94.7913 246.375 95.506C246.146 95.6491 245.912 95.7961 245.745 96.0011C245.507 96.2917 245.426 96.6674 245.357 97.0293C245.007 98.8442 244.695 100.808 243.323 102.118C242.097 103.29 240.269 103.687 238.528 103.902C234.524 104.396 230.415 104.195 226.472 103.312C224.926 102.966 223.376 102.503 222.079 101.634C219.738 100.066 218.52 97.3643 218.098 94.7019C217.676 92.0395 217.935 89.3363 217.924 86.6486C217.919 85.3349 217.832 83.9611 217.127 82.8197C216.422 81.6783 214.916 80.8647 213.602 81.3003L212.553 77.3369Z" fill="#C9C0B1"/>
<path d="M217.032 70.2635C217.542 68.0355 218.17 65.8237 218.399 63.5495C218.859 58.9795 217.692 54.4195 216.535 49.9746C217.534 50.0861 218.611 50.2324 219.335 50.9294C220.15 51.7126 220.276 52.9501 220.354 54.0773C220.884 61.7748 221.38 69.7295 218.793 76.9985C217.805 79.7727 216.356 82.6198 216.932 85.5074C216.709 84.3906 215.528 83.1879 215.213 81.9668C214.914 80.8062 214.848 79.7543 215.195 78.614C216.028 75.8723 216.39 73.0705 217.032 70.2635Z" fill="#C9C0B1"/>
<path d="M248.359 75.886C250.997 83.9046 251.02 92.7604 248.425 100.793C248.357 101.004 248.279 101.226 248.105 101.364C247.708 101.676 247.125 101.353 246.792 100.973C245.427 99.4105 245.502 97.0893 245.736 95.027C245.996 92.737 246.355 90.4583 246.814 88.1998C247.212 86.2428 247.687 84.2596 247.492 82.2722C247.343 80.7513 246.808 79.2994 246.423 77.8206C245.414 73.9489 245.432 69.8941 245.456 65.8932C245.459 65.2756 245.526 64.6683 246.075 64.3815C246.812 65.6248 246.166 67.946 246.404 69.3964C246.77 71.6303 247.655 73.7465 248.359 75.886Z" fill="#C9C0B1"/>
<path d="M217.288 90.2603C218.614 92.42 220.247 94.4204 222.28 95.9334C224.078 97.2716 226.149 98.2011 228.263 98.9447C231.448 100.064 234.834 100.789 238.195 100.466C241.555 100.144 244.898 98.6795 247.003 96.0399C249.659 92.7079 249.99 88.0627 249.389 83.844C248.787 79.6254 247.378 75.5405 246.97 71.2989C246.375 65.1068 247.935 58.9591 249.702 52.9645C248.287 53.0192 246.872 53.0496 245.456 53.0557C242.999 60.6887 242.46 68.9323 243.91 76.8193C244.587 80.5015 245.691 84.1205 245.941 87.8561C246.043 89.3701 245.987 90.9587 245.276 92.2988C244.161 94.398 241.719 95.4054 239.4 95.925C235.945 96.699 232.278 96.7395 228.908 95.6547C225.538 94.57 222.493 92.2973 220.822 89.1761C219.99 87.6228 219.512 85.9096 218.872 84.2678C218.301 82.8026 217.6 81.3896 217.065 79.9108C216.177 77.4536 215.763 74.8459 215.588 72.239C215.058 64.3132 217.1 57.5881 219.937 50.5136C218.77 50.2708 217.605 50.004 216.454 49.696C215.62 51.4501 215.207 53.8772 214.872 55.1363C213.656 59.7104 212.752 64.3851 212.514 69.1199C212.145 76.4452 213.45 84.0099 217.288 90.2603Z" fill="#F7A037"/>
<path opacity="0.37" d="M200.49 59.4177C200.285 62.2755 199.273 65.039 197.819 67.5084C196.267 70.1473 194.185 72.5396 193.312 75.4745C192.44 78.4095 193.314 82.2216 196.175 83.3127C198.179 84.0773 200.549 83.2034 201.983 81.6082C203.418 80.013 204.045 77.8381 204.252 75.7028C204.416 73.9973 204.346 72.2417 204.893 70.6177C205.5 68.8113 206.81 67.3449 207.838 65.7399C210.532 61.5324 211.558 54.6667 207.274 51.0255C205.674 49.6657 203.755 49.463 202.213 51.0221C200.051 53.2071 200.688 56.6495 200.49 59.4177Z" fill="white"/>
<path opacity="0.37" d="M191.347 87.1519C190.552 88.0168 190.451 89.2953 190.422 90.4695C190.279 96.0943 190.811 101.738 192.041 107.229C192.404 108.847 192.841 110.485 193.752 111.871C194.663 113.257 196.131 114.371 197.787 114.463C198.019 114.475 198.276 114.459 198.443 114.298C198.607 114.141 198.636 113.894 198.649 113.667C198.787 111.38 198.328 109.083 198.514 106.799C198.721 104.261 199.708 101.865 200.527 99.4541C201.346 97.0433 202.011 94.474 201.546 91.9708C200.867 88.315 194.799 83.3941 191.347 87.1519Z" fill="white"/>
<path d="M252.631 101.441C252.119 102.01 251.579 102.582 251.294 103.293C251.01 104.003 251.043 104.901 251.587 105.439C251.893 105.741 252.314 105.891 252.72 106.032C254.237 106.56 255.754 107.088 257.271 107.616C257.79 107.797 258.352 107.979 258.879 107.822C259.181 107.732 259.44 107.537 259.68 107.334C262.28 105.13 263.336 101.58 263.614 98.1833C263.753 96.4825 265.541 86.3662 261.75 88.6876C260.429 89.4963 257.574 94.6828 256.739 96.0068C255.528 97.9304 254.153 99.7518 252.631 101.441Z" fill="#C9C0B1"/>
<path d="M231.499 30.201C231.643 30.3398 231.778 30.5003 231.902 30.6827C232.026 30.8647 232.142 31.0426 232.25 31.2159C232.295 31.1727 232.345 31.1339 232.402 31.0991C232.459 31.0641 232.516 31.0377 232.573 31.0197C232.63 31.0017 232.685 30.9951 232.738 31.0001C232.791 31.0048 232.837 31.0264 232.877 31.0644C232.892 31.0792 232.909 31.1016 232.926 31.1318C232.944 31.1616 232.958 31.1943 232.969 31.2295C232.979 31.2647 232.983 31.3005 232.98 31.3368C232.976 31.3732 232.962 31.4043 232.937 31.4299L232.605 31.7755C232.574 31.8081 232.566 31.8442 232.583 31.8836C232.6 31.9228 232.619 31.9592 232.64 31.9925C232.718 32.1106 232.784 32.2148 232.838 32.3048C232.892 32.3948 232.938 32.4711 232.976 32.5337C233.013 32.596 233.044 32.6465 233.068 32.6849C233.093 32.7232 233.114 32.7514 233.133 32.7696C233.156 32.7911 233.178 32.811 233.2 32.829C233.222 32.8472 233.252 32.8737 233.288 32.9084L233.314 32.9331C233.327 32.9465 233.344 32.9649 233.364 32.9891C233.384 33.0132 233.408 33.0519 233.436 33.1053C233.459 33.147 233.471 33.1956 233.474 33.2511C233.477 33.3068 233.453 33.3612 233.402 33.4147C233.357 33.461 233.31 33.4914 233.259 33.506C233.209 33.5203 233.158 33.5232 233.108 33.514C233.057 33.5049 233.006 33.4867 232.957 33.459C232.908 33.4312 232.863 33.3981 232.824 33.3602C232.781 33.3188 232.746 33.2774 232.72 33.2359L232.179 32.3535C232.105 32.4613 232.04 32.5578 231.985 32.6433C231.929 32.7285 231.873 32.8141 231.818 32.8995C231.757 32.9934 231.706 33.0758 231.664 33.1466C231.623 33.2173 231.587 33.278 231.557 33.3284C231.527 33.3787 231.501 33.4209 231.48 33.4552C231.458 33.4893 231.439 33.5157 231.42 33.5347C231.394 33.5621 231.365 33.588 231.333 33.6123C231.302 33.6365 231.271 33.6544 231.24 33.6659C231.209 33.6776 231.177 33.6809 231.145 33.6766C231.113 33.6721 231.081 33.6552 231.05 33.6253C231.009 33.5857 230.98 33.5423 230.964 33.4955C230.948 33.4486 230.941 33.4012 230.942 33.3529C230.944 33.3048 230.953 33.2573 230.97 33.2107C230.987 33.1638 231.008 33.1208 231.032 33.0816C231.053 33.0492 231.08 33.0061 231.112 32.9525C231.144 32.8986 231.179 32.8396 231.217 32.7757C231.255 32.7117 231.295 32.6446 231.336 32.5748C231.377 32.5046 231.416 32.4364 231.453 32.3701C231.508 32.2711 231.556 32.1871 231.596 32.1181C231.636 32.0489 231.672 31.9913 231.703 31.9452C231.734 31.8989 231.76 31.8618 231.78 31.8336C231.801 31.8054 231.819 31.7834 231.833 31.7681C231.767 31.6413 231.698 31.5202 231.626 31.4054C231.555 31.2902 231.486 31.1854 231.42 31.0905C231.354 30.9956 231.293 30.9134 231.236 30.8438C231.179 30.7742 231.132 30.7217 231.096 30.687C231.05 30.6424 231.001 30.6041 230.951 30.5724C230.9 30.5402 230.85 30.5201 230.799 30.5109C230.748 30.5019 230.697 30.5062 230.645 30.524C230.593 30.5419 230.541 30.5776 230.49 30.631C230.403 30.722 230.342 30.8353 230.307 30.9711C230.273 31.1066 230.255 31.2511 230.255 31.4047C230.255 31.5581 230.266 31.7143 230.288 31.8734C230.311 32.0322 230.335 32.1815 230.359 32.3209C230.37 32.3713 230.36 32.4128 230.329 32.4456C230.319 32.4559 230.305 32.4667 230.288 32.478C230.27 32.4893 230.251 32.4977 230.229 32.5032C230.207 32.5088 230.185 32.5094 230.162 32.506C230.139 32.5021 230.118 32.4911 230.099 32.4729C230.085 32.4596 230.076 32.4488 230.071 32.4405C229.99 32.3106 229.924 32.1651 229.872 32.0043C229.82 31.8435 229.769 31.6808 229.719 31.5167C229.7 31.4596 229.69 31.3971 229.686 31.3287C229.682 31.2606 229.682 31.1906 229.687 31.1186C229.691 31.0469 229.699 30.975 229.71 30.9031C229.721 30.8313 229.733 30.7646 229.745 30.7039C229.767 30.5988 229.807 30.5003 229.866 30.4082C229.925 30.3157 229.989 30.2336 230.058 30.1614C230.166 30.0496 230.282 29.9698 230.405 29.9218C230.529 29.8737 230.654 29.8536 230.781 29.8612C230.908 29.8689 231.032 29.9018 231.155 29.9602C231.278 30.0182 231.392 30.0984 231.499 30.201Z" fill="#93746C"/>
<path d="M229.399 32.7707C229.473 32.8417 229.516 32.9217 229.53 33.0111C229.543 33.1001 229.528 33.1854 229.482 33.2674C229.502 33.3226 229.525 33.401 229.551 33.5026C229.578 33.604 229.601 33.7204 229.62 33.8516C229.64 33.9827 229.652 34.1226 229.656 34.2709C229.661 34.4191 229.651 34.5686 229.627 34.7193C229.603 34.8698 229.561 35.0161 229.501 35.1582C229.44 35.3001 229.354 35.4297 229.241 35.5466C229.146 35.6463 229.05 35.7216 228.955 35.7725C228.86 35.8232 228.768 35.8519 228.678 35.8588C228.589 35.8654 228.503 35.8524 228.421 35.8195C228.338 35.7867 228.263 35.7371 228.194 35.671C228.135 35.6147 228.087 35.5534 228.049 35.4867C227.975 35.3701 227.934 35.2444 227.925 35.1097C227.915 34.975 227.926 34.8372 227.957 34.6967C227.988 34.556 228.035 34.4164 228.099 34.2776C228.163 34.1389 228.233 34.0058 228.309 33.8788C228.385 33.7516 228.463 33.6337 228.542 33.5251C228.622 33.4164 228.692 33.3235 228.753 33.2463C228.737 33.2013 228.711 33.1502 228.674 33.0937C228.638 33.0369 228.597 32.9874 228.552 32.9444C228.452 32.8485 228.337 32.8136 228.206 32.8398C228.075 32.866 227.943 32.9488 227.809 33.088C227.731 33.1688 227.666 33.255 227.613 33.3462C227.56 33.4373 227.516 33.5299 227.48 33.6233C227.445 33.7167 227.416 33.8088 227.394 33.8996C227.371 33.9902 227.353 34.0753 227.339 34.1549C227.321 34.2565 227.299 34.3487 227.274 34.4319C227.248 34.5152 227.215 34.5781 227.174 34.6212C227.133 34.664 227.095 34.6812 227.062 34.6726C227.029 34.6639 227 34.6482 226.976 34.6251C226.963 34.6119 226.95 34.5985 226.938 34.5853C226.926 34.572 226.916 34.5604 226.909 34.5503C226.873 34.4987 226.845 34.4387 226.825 34.3699C226.805 34.3012 226.797 34.2314 226.803 34.1606C226.834 33.846 226.91 33.5659 227.03 33.3198C227.151 33.0737 227.314 32.844 227.519 32.6309C227.559 32.5897 227.608 32.5435 227.667 32.4925C227.725 32.4416 227.792 32.3934 227.865 32.3482C227.938 32.3028 228.018 32.265 228.103 32.2347C228.188 32.2042 228.277 32.1895 228.369 32.1902C228.461 32.1907 228.556 32.211 228.654 32.2503C228.751 32.2897 228.85 32.3573 228.95 32.4532C229.03 32.5308 229.11 32.6287 229.188 32.747C229.213 32.7279 229.245 32.718 229.284 32.7172C229.323 32.7164 229.361 32.7342 229.399 32.7707ZM228.561 35.0717C228.567 35.0833 228.573 35.0925 228.58 35.0991C228.586 35.1059 228.594 35.1131 228.603 35.1215C228.649 35.1662 228.701 35.1824 228.757 35.1703C228.813 35.1581 228.865 35.128 228.911 35.0799C228.984 35.0043 229.035 34.9108 229.066 34.7998C229.097 34.6886 229.113 34.5725 229.116 34.451C229.118 34.3295 229.11 34.2112 229.09 34.0962C229.07 33.9808 229.046 33.8831 229.017 33.8028C228.908 33.9365 228.816 34.0659 228.74 34.1915C228.664 34.3169 228.607 34.4347 228.569 34.5453C228.53 34.6555 228.51 34.7556 228.509 34.845C228.507 34.9344 228.525 35.01 228.561 35.0717Z" fill="#93746C"/>
<path d="M224.766 35.8191C224.816 35.8669 224.87 35.9305 224.928 36.0095C224.986 36.0884 225.067 36.1774 225.17 36.2766C225.183 36.1802 225.194 36.0703 225.204 35.947C225.213 35.8237 225.227 35.7002 225.247 35.5768C225.266 35.4532 225.293 35.3379 225.328 35.2312C225.364 35.1241 225.412 35.039 225.473 34.9752C225.522 34.9236 225.577 34.8822 225.637 34.8506C225.697 34.8189 225.756 34.7992 225.813 34.7913C225.973 34.7695 226.109 34.7732 226.22 34.8023C226.33 34.8314 226.434 34.8921 226.531 34.9847C226.574 35.026 226.615 35.0727 226.653 35.1252C226.693 35.1775 226.735 35.2404 226.78 35.3137C226.989 35.6401 227.133 35.994 227.211 36.3754C227.289 36.7566 227.297 37.1434 227.234 37.5362C227.21 37.6884 227.163 37.8188 227.094 37.9273C227.024 38.0356 226.946 38.1347 226.86 38.2242C226.822 38.2637 226.777 38.3054 226.725 38.3495C226.673 38.3935 226.625 38.4327 226.582 38.4674C226.552 38.515 226.527 38.5531 226.507 38.5814C226.486 38.6095 226.463 38.6375 226.436 38.665C226.387 38.7166 226.339 38.7528 226.292 38.774C226.245 38.7951 226.2 38.8049 226.157 38.8032C226.114 38.8017 226.073 38.791 226.034 38.7715C225.995 38.752 225.958 38.7267 225.926 38.6952C225.881 38.6524 225.845 38.6044 225.818 38.5519C225.791 38.4993 225.763 38.4464 225.735 38.393L224.703 36.7462C224.636 36.6681 224.574 36.5969 224.517 36.5322C224.46 36.4676 224.412 36.4019 224.374 36.3352C224.363 36.3151 224.35 36.2902 224.334 36.2602C224.319 36.2301 224.308 36.1959 224.303 36.1582C224.298 36.1202 224.3 36.0812 224.31 36.0403C224.319 35.9998 224.344 35.9588 224.383 35.9175C224.435 35.8641 224.479 35.825 224.516 35.7997C224.554 35.7746 224.587 35.7594 224.617 35.7548C224.646 35.7497 224.672 35.7534 224.695 35.7659C224.718 35.7782 224.742 35.796 224.766 35.8191ZM226.368 35.7115C226.35 35.6814 226.323 35.6411 226.286 35.5904C226.248 35.5396 226.207 35.4929 226.163 35.4498C226.116 35.4053 226.068 35.372 226.018 35.3503C225.967 35.3283 225.92 35.3408 225.876 35.3871C225.806 35.4594 225.757 35.5421 225.729 35.6354C225.7 35.7286 225.682 35.8243 225.674 35.9223C225.663 36.0541 225.658 36.1942 225.659 36.3428C225.66 36.491 225.67 36.6388 225.687 36.7862C225.704 36.9333 225.731 37.075 225.768 37.211C225.804 37.3466 225.854 37.4679 225.916 37.5748C225.953 37.6363 226 37.7032 226.056 37.7756C226.112 37.8478 226.166 37.9088 226.217 37.9584C226.24 37.9798 226.267 37.9957 226.298 38.006C226.33 38.0164 226.359 38.007 226.387 37.9777C226.468 37.8935 226.534 37.793 226.582 37.6766C226.632 37.5601 226.667 37.4357 226.688 37.3039C226.709 37.172 226.716 37.0343 226.71 36.8912C226.704 36.7478 226.686 36.6061 226.657 36.4658C226.628 36.3256 226.589 36.1911 226.539 36.0621C226.489 35.9334 226.432 35.8164 226.368 35.7115Z" fill="#93746C"/>
<path d="M221.306 35.9844C222.203 35.0903 222.953 33.9841 223.139 32.7316C223.23 32.1233 222.783 29.0456 221.666 29.7417C221.178 30.0462 220.928 31.0679 220.797 31.5857C220.625 32.2684 220.568 32.9804 220.629 33.6817C220.699 34.484 220.924 35.2741 221.306 35.9844Z" fill="#846861"/>
<path d="M223.141 30.8542C223.79 31.595 224.633 32.1465 225.528 32.5578C225.711 31.5228 225.436 30.4152 224.79 29.5862C224.48 29.1886 224.087 28.8582 223.646 28.6136C223.359 28.4543 222.525 28.0063 222.192 28.1823C221.495 28.5509 222.823 30.4909 223.141 30.8542Z" fill="#846861"/>
<defs>
<linearGradient id="paint0_linear_33506_5510" x1="295" y1="9.98568" x2="-1.3104e-06" y2="131.044" gradientUnits="userSpaceOnUse">
<stop stop-color="#66320B"/>
<stop offset="1" stop-color="#CC6415"/>
</linearGradient>
</defs>
</svg>
