<svg width="68" height="13" viewBox="0 0 68 13" fill="none" xmlns="http://www.w3.org/2000/svg">
<g clip-path="url(#clip0_33506_6855)">
<path opacity="0.4" d="M60.9102 0.55957C62.1582 0.55957 62.6111 0.689612 63.0674 0.933594C63.5237 1.17762 63.8819 1.53589 64.126 1.99219C64.37 2.44844 64.5 2.90142 64.5 4.14941V8.46973C64.5 9.71772 64.37 10.1707 64.126 10.627C63.8819 11.0832 63.5237 11.4415 63.0674 11.6855C62.6111 11.9295 62.1582 12.0596 60.9102 12.0596H46.0898C44.8418 12.0596 44.3889 11.9295 43.9326 11.6855C43.4763 11.4415 43.1181 11.0832 42.874 10.627C42.63 10.1707 42.5 9.71772 42.5 8.46973V4.14941C42.5 2.90142 42.63 2.44844 42.874 1.99219C43.1181 1.53589 43.4763 1.17762 43.9326 0.933594C44.3889 0.689612 44.8418 0.55957 46.0898 0.55957H60.9102ZM46.0898 1.55957C45.103 1.55957 44.7581 1.62625 44.4043 1.81543C44.1223 1.96626 43.9067 2.18184 43.7559 2.46387C43.5667 2.81769 43.5 3.16262 43.5 4.14941V8.46973C43.5 9.45652 43.5667 9.80145 43.7559 10.1553C43.9067 10.4373 44.1223 10.6529 44.4043 10.8037C44.7581 10.9929 45.103 11.0596 46.0898 11.0596H60.9102C61.897 11.0596 62.2419 10.9929 62.5957 10.8037C62.8777 10.6529 63.0933 10.4373 63.2441 10.1553C63.4333 9.80145 63.5 9.45652 63.5 8.46973V4.14941C63.5 3.16262 63.4333 2.81769 63.2441 2.46387C63.0933 2.18184 62.8777 1.96626 62.5957 1.81543C62.2419 1.62625 61.897 1.55957 60.9102 1.55957H46.0898ZM65.5 4.25C65.5184 4.25942 67 5.02112 67 6.25C66.9997 7.48632 65.5 8.25 65.5 8.25V4.25Z" fill="#111111"/>
<rect x="44.5" y="2.47656" width="18" height="7.66667" rx="1.6" fill="#111111"/>
<path d="M1.5 7.7002C1.77879 7.7002 1.91826 7.6996 2.03418 7.72266C2.51021 7.81734 2.88187 8.18999 2.97656 8.66602C2.99961 8.78193 3 8.92144 3 9.2002V10.2002C3 10.4789 2.99961 10.6185 2.97656 10.7344C2.88178 11.2102 2.51005 11.5821 2.03418 11.6768C1.91826 11.6998 1.77879 11.7002 1.5 11.7002C1.22121 11.7002 1.08174 11.6998 0.96582 11.6768C0.48995 11.5821 0.118223 11.2102 0.0234375 10.7344C0.000385105 10.6185 1.19764e-09 10.4789 0 10.2002V9.2002C0 8.92144 0.000388227 8.78193 0.0234375 8.66602C0.118125 8.18999 0.489792 7.81734 0.96582 7.72266C1.08174 7.6996 1.22121 7.7002 1.5 7.7002ZM6.2998 5.7002C6.57845 5.7002 6.7181 5.69964 6.83398 5.72266C7.31001 5.81734 7.68266 6.18999 7.77734 6.66602C7.80036 6.7819 7.7998 6.92156 7.7998 7.2002V10.2002C7.7998 10.4789 7.8004 10.6185 7.77734 10.7344C7.6826 11.2103 7.30996 11.5821 6.83398 11.6768C6.71808 11.6998 6.57854 11.7002 6.2998 11.7002C6.02113 11.7002 5.88152 11.6998 5.76562 11.6768C5.28983 11.582 4.918 11.2102 4.82324 10.7344C4.80019 10.6185 4.7998 10.4789 4.7998 10.2002V7.2002C4.7998 6.92146 4.8002 6.78192 4.82324 6.66602C4.91792 6.19004 5.28968 5.8174 5.76562 5.72266C5.88152 5.6996 6.02113 5.7002 6.2998 5.7002ZM10.9004 3.40039C11.1789 3.40039 11.3187 3.3998 11.4346 3.42285C11.9104 3.51767 12.2823 3.89032 12.377 4.36621C12.3999 4.48207 12.4004 4.62185 12.4004 4.90039V10.2002C12.4004 10.4789 12.4 10.6185 12.377 10.7344C12.2822 11.2101 11.9103 11.5819 11.4346 11.6768C11.3187 11.6998 11.1789 11.7002 10.9004 11.7002C10.6218 11.7002 10.4821 11.6998 10.3662 11.6768C9.89025 11.5821 9.51761 11.2103 9.42285 10.7344C9.3998 10.6185 9.40039 10.4789 9.40039 10.2002V4.90039C9.40039 4.62187 9.39986 4.48206 9.42285 4.36621C9.51754 3.89018 9.89018 3.51754 10.3662 3.42285C10.4821 3.39986 10.6219 3.40039 10.9004 3.40039ZM15.5996 1C15.8782 1 16.0179 1.00042 16.1338 1.02344C16.6098 1.11812 16.9825 1.4898 17.0771 1.96582C17.1002 2.08174 17.0996 2.22121 17.0996 2.5V10.2002C17.0996 10.4789 17.1002 10.6185 17.0771 10.7344C16.9824 11.2103 16.6097 11.5821 16.1338 11.6768C16.0179 11.6998 15.8782 11.7002 15.5996 11.7002C15.3211 11.7002 15.1813 11.6998 15.0654 11.6768C14.5897 11.5819 14.2178 11.2101 14.123 10.7344C14.1 10.6185 14.0996 10.4789 14.0996 10.2002V2.5C14.0996 2.22121 14.1 2.08174 14.123 1.96582C14.2177 1.48999 14.5897 1.11828 15.0654 1.02344C15.1813 1.00039 15.3211 1 15.5996 1Z" fill="#111111"/>
<path fill-rule="evenodd" clip-rule="evenodd" d="M29.8 3.09616C32.0344 3.09626 34.1834 3.95482 35.8028 5.49437C35.9247 5.61323 36.1196 5.61173 36.2397 5.49101L37.4054 4.3146C37.4662 4.25337 37.5001 4.17043 37.4996 4.08413C37.4991 3.99784 37.4642 3.9153 37.4027 3.85479C33.1524 -0.218523 26.447 -0.218523 22.1967 3.85479C22.1351 3.91526 22.1002 3.99777 22.0996 4.08406C22.099 4.17036 22.1329 4.25332 22.1937 4.3146L23.3597 5.49101C23.4797 5.61192 23.6747 5.61342 23.7966 5.49437C25.4162 3.95471 27.5654 3.09616 29.8 3.09616ZM29.8 6.92355C31.0277 6.92348 32.2115 7.37979 33.1216 8.20383C33.2446 8.32078 33.4385 8.31824 33.5585 8.19811L34.7228 7.0217C34.7841 6.95999 34.8182 6.87628 34.8173 6.7893C34.8164 6.70231 34.7807 6.61931 34.7181 6.55886C31.947 3.98112 27.6555 3.98112 24.8843 6.55886C24.8217 6.61931 24.786 6.70235 24.7852 6.78936C24.7843 6.87638 24.8185 6.96008 24.8799 7.0217L26.0439 8.19811C26.1639 8.31824 26.3578 8.32078 26.4809 8.20383C27.3903 7.38033 28.5732 6.92406 29.8 6.92355ZM32.0376 9.73115C32.0998 9.67004 32.1341 9.58594 32.1324 9.49871C32.1306 9.41148 32.0929 9.32885 32.0282 9.27033C30.7419 8.18243 28.8581 8.18243 27.5719 9.27033C27.5071 9.32881 27.4694 9.41141 27.4675 9.49864C27.4657 9.58587 27.4999 9.66999 27.5621 9.73115L29.5765 11.7637C29.6356 11.8234 29.716 11.857 29.8 11.857C29.884 11.857 29.9645 11.8234 30.0235 11.7637L32.0376 9.73115Z" fill="#111111"/>
</g>
<defs>
<clipPath id="clip0_33506_6855">
<rect width="68" height="13" fill="white"/>
</clipPath>
</defs>
</svg>
