<svg width="10" height="10" viewBox="0 0 10 10" fill="none" xmlns="http://www.w3.org/2000/svg">
<path d="M3.57658 1.70419C4.20991 0.568063 4.52657 0 5 0C5.47343 0 5.79009 0.568062 6.42342 1.70419L6.58727 1.99812C6.76724 2.32097 6.85722 2.48239 6.99753 2.5889C7.13783 2.69541 7.31257 2.73495 7.66206 2.81402L7.98023 2.88601C9.21007 3.16428 9.82499 3.30341 9.97129 3.77387C10.1176 4.24432 9.69838 4.73454 8.85995 5.71496L8.64304 5.96861C8.40479 6.24722 8.28566 6.38652 8.23207 6.55886C8.17848 6.73119 8.19649 6.91706 8.23251 7.28878L8.2653 7.6272C8.39206 8.9353 8.45544 9.58935 8.07243 9.88011C7.68941 10.1709 7.11366 9.90577 5.96216 9.37559L5.66426 9.23842C5.33704 9.08776 5.17343 9.01242 5 9.01242C4.82657 9.01242 4.66296 9.08776 4.33574 9.23842L4.03784 9.37558C2.88634 9.90577 2.31059 10.1709 1.92757 9.88011C1.54456 9.58935 1.60794 8.9353 1.7347 7.6272L1.76749 7.28878C1.80351 6.91706 1.82152 6.73119 1.76793 6.55886C1.71434 6.38652 1.59521 6.24722 1.35696 5.96861L1.14005 5.71496C0.301624 4.73454 -0.117588 4.24432 0.0287105 3.77387C0.175009 3.30341 0.789928 3.16428 2.01977 2.88601L2.33794 2.81402C2.68743 2.73495 2.86217 2.69541 3.00247 2.5889C3.14278 2.48239 3.23276 2.32097 3.41273 1.99812L3.57658 1.70419Z" fill="#FACC15"/>
</svg>
