<svg width="20" height="20" viewBox="0 0 20 20" fill="none" xmlns="http://www.w3.org/2000/svg">
<path d="M15 10.625C11.9 10.625 9.375 8.1 9.375 5C9.375 4.65625 9.09375 4.375 8.75 4.375C8.40625 4.375 8.125 4.65625 8.125 5C8.125 8.1 5.6 10.625 2.5 10.625C2.15625 10.625 1.875 10.9062 1.875 11.25C1.875 11.5938 2.15625 11.875 2.5 11.875C5.6 11.875 8.125 14.4 8.125 17.5C8.125 17.8438 8.40625 18.125 8.75 18.125C9.09375 18.125 9.375 17.8438 9.375 17.5C9.375 14.4 11.9 11.875 15 11.875C15.3438 11.875 15.625 11.5938 15.625 11.25C15.625 10.9062 15.3438 10.625 15 10.625ZM17.5 4.6875C16.2937 4.6875 15.3125 3.70625 15.3125 2.5C15.3125 2.15625 15.0312 1.875 14.6875 1.875C14.3438 1.875 14.0625 2.15625 14.0625 2.5C14.0625 3.70625 13.0813 4.6875 11.875 4.6875C11.5312 4.6875 11.25 4.96875 11.25 5.3125C11.25 5.65625 11.5312 5.9375 11.875 5.9375C13.0813 5.9375 14.0625 6.91875 14.0625 8.125C14.0625 8.46875 14.3438 8.75 14.6875 8.75C15.0312 8.75 15.3125 8.46875 15.3125 8.125C15.3125 6.91875 16.2937 5.9375 17.5 5.9375C17.8438 5.9375 18.125 5.65625 18.125 5.3125C18.125 4.96875 17.8438 4.6875 17.5 4.6875Z" fill="url(#paint0_linear_33511_5902)"/>
<defs>
<linearGradient id="paint0_linear_33511_5902" x1="22.6327" y1="21.4084" x2="8.21914" y2="4.54613" gradientUnits="userSpaceOnUse">
<stop offset="0.003" stop-color="#FF37DF"/>
<stop offset="1" stop-color="#6E00FF"/>
</linearGradient>
</defs>
</svg>
