<svg width="56" height="56" viewBox="0 0 56 56" fill="none" xmlns="http://www.w3.org/2000/svg">
<rect width="55.9701" height="55.9701" rx="27.9851" fill="#1D1D2F"/>
<path d="M27.9844 29.9854C27.151 29.9854 26.4427 29.6937 25.8594 29.1104C25.276 28.527 24.9844 27.8187 24.9844 26.9854V20.9854C24.9844 20.152 25.276 19.4437 25.8594 18.8604C26.4427 18.277 27.151 17.9854 27.9844 17.9854C28.8177 17.9854 29.526 18.277 30.1094 18.8604C30.6927 19.4437 30.9844 20.152 30.9844 20.9854V26.9854C30.9844 27.8187 30.6927 28.527 30.1094 29.1104C29.526 29.6937 28.8177 29.9854 27.9844 29.9854ZM26.9844 36.9854V33.9104C25.251 33.677 23.8177 32.902 22.6844 31.5854C21.551 30.2687 20.9844 28.7354 20.9844 26.9854H22.9844C22.9844 28.3687 23.4719 29.5479 24.4469 30.5229C25.4219 31.4979 26.601 31.9854 27.9844 31.9854C29.3677 31.9854 30.5469 31.4979 31.5219 30.5229C32.4969 29.5479 32.9844 28.3687 32.9844 26.9854H34.9844C34.9844 28.7354 34.4177 30.2687 33.2844 31.5854C32.151 32.902 30.7177 33.677 28.9844 33.9104V36.9854H26.9844Z" fill="#F6F8FE"/>
</svg>
