<svg width="42" height="42" viewBox="0 0 42 42" fill="none" xmlns="http://www.w3.org/2000/svg">
<rect width="42" height="42" rx="21" fill="#F9F8FF"/>
<path d="M14.344 22.86C14.344 24.82 12.678 26.052 10.018 26.052H6L7.778 16H11.67C13.49 16 14.708 16.994 14.708 18.492C14.708 19.57 14.036 20.466 12.93 20.858C13.812 21.18 14.344 21.922 14.344 22.86ZM11.124 18.072H9.878L9.556 19.822H10.802C11.712 19.822 12.216 19.486 12.216 18.856C12.216 18.338 11.852 18.072 11.124 18.072ZM10.55 21.894H9.192L8.814 23.98H10.172C11.194 23.98 11.81 23.546 11.81 22.832C11.81 22.23 11.362 21.894 10.55 21.894Z" fill="#318615"/>
<path d="M17.7222 26.052H15.1602L16.9382 16H20.9282C23.0982 16 24.5122 17.148 24.5122 18.898C24.5122 20.55 23.5742 21.726 21.7542 22.342L23.6722 26.052H20.8442L19.1642 22.678H18.3102L17.7222 26.052ZM19.1222 18.142L18.6882 20.536H20.0042C21.2642 20.536 21.9362 20.074 21.9362 19.206C21.9362 18.492 21.4462 18.142 20.4382 18.142H19.1222Z" fill="#318615"/>
<path d="M35.1621 16L29.9261 26.052H27.1261L25.4601 16H28.0221L28.9881 23.056L32.3761 16H35.1621Z" fill="#318615"/>
</svg>
