<svg width="280" height="280" viewBox="0 0 280 280" fill="none" xmlns="http://www.w3.org/2000/svg">
<g filter="url(#filter0_d_33506_2818)">
<circle cx="140" cy="136" r="120" fill="#F6F8FB"/>
</g>
<mask id="mask0_33506_2818" style="mask-type:alpha" maskUnits="userSpaceOnUse" x="20" y="16" width="240" height="240">
<circle cx="140" cy="136" r="120" fill="#F6F8FE"/>
</mask>
<g mask="url(#mask0_33506_2818)">
</g>
<g clip-path="url(#clip0_33506_2818)">
<path d="M140.5 226.5C190.206 226.5 230.5 186.206 230.5 136.5C230.5 86.7944 190.206 46.5 140.5 46.5C90.7944 46.5 50.5 86.7944 50.5 136.5C50.5 186.206 90.7944 226.5 140.5 226.5Z" fill="#32BA7C"/>
<path d="M117.504 177.1L163.782 223.377C202.11 213.156 230.501 178.235 230.501 136.5C230.501 135.648 230.501 134.797 230.501 133.945L194.16 100.443L117.504 177.1Z" fill="#0AA06E"/>
<path d="M142.771 156.658C146.746 160.632 146.746 167.446 142.771 171.421L134.538 179.655C130.563 183.629 123.749 183.629 119.774 179.655L83.7174 143.314C79.7426 139.339 79.7426 132.525 83.7174 128.55L91.9508 120.317C95.9256 116.342 102.739 116.342 106.714 120.317L142.771 156.658Z" fill="white"/>
<path d="M174.285 93.9137C178.26 89.9389 185.074 89.9389 189.049 93.9137L197.282 102.147C201.257 106.122 201.257 112.936 197.282 116.911L134.822 179.087C130.847 183.062 124.033 183.062 120.058 179.087L111.825 170.854C107.85 166.879 107.85 160.065 111.825 156.09L174.285 93.9137Z" fill="white"/>
</g>
<circle cx="25.4913" cy="243.491" r="2.49116" transform="rotate(180 25.4913 243.491)" fill="#F1F3F7"/>
<circle cx="58.4913" cy="248.491" r="2.49116" transform="rotate(180 58.4913 248.491)" fill="#C1CBD4"/>
<path d="M35.267 229.678L33.4211 231.524L32.0866 230.189L33.9325 228.343L31.8462 226.257L33.2524 224.851L35.3386 226.937L37.1896 225.086L38.5242 226.421L36.6732 228.272L38.6724 230.271L37.2663 231.677L35.267 229.678Z" fill="#85C0F9"/>
<circle cx="2.49116" cy="2.49116" r="2.49116" transform="matrix(1 0 0 -1 64.541 24.9824)" fill="#C1CBD4"/>
<circle cx="2.49116" cy="2.49116" r="2.49116" transform="matrix(1 0 0 -1 37.541 29.9824)" fill="#F1F3F7"/>
<path d="M35.2564 56.6778L37.1023 58.5237L38.4369 57.1891L36.591 55.3432L38.6772 53.257L37.271 51.8509L35.1848 53.9371L33.3338 52.0861L31.9993 53.4206L33.8503 55.2716L31.851 57.2709L33.2571 58.6771L35.2564 56.6778Z" fill="#85C0F9"/>
<path d="M38.5 171.781C37.2956 171.685 34.5977 172.417 33.4414 176.117C31.9961 180.742 31.9961 189.992 20 190.137" stroke="#FE5284" stroke-width="4" stroke-linecap="round"/>
<path d="M261.342 213.299C258.352 213.265 252.154 211.276 251.283 203.594C250.478 196.492 259.708 196.75 257.553 202.45C255.731 207.269 241.945 212.286 236.811 193.963" stroke="#F39958" stroke-width="4" stroke-linecap="round"/>
<path d="M190.283 27.9277C194.093 25.0024 203 19.8654 213.273 25.2967" stroke="#85C0F9" stroke-width="4" stroke-linecap="round"/>
<defs>
<filter id="filter0_d_33506_2818" x="0" y="0" width="280" height="280" filterUnits="userSpaceOnUse" color-interpolation-filters="sRGB">
<feFlood flood-opacity="0" result="BackgroundImageFix"/>
<feColorMatrix in="SourceAlpha" type="matrix" values="0 0 0 0 0 0 0 0 0 0 0 0 0 0 0 0 0 0 127 0" result="hardAlpha"/>
<feOffset dy="4"/>
<feGaussianBlur stdDeviation="10"/>
<feComposite in2="hardAlpha" operator="out"/>
<feColorMatrix type="matrix" values="0 0 0 0 0.905882 0 0 0 0 0.933333 0 0 0 0 0.984314 0 0 0 0.15 0"/>
<feBlend mode="normal" in2="BackgroundImageFix" result="effect1_dropShadow_33506_2818"/>
<feBlend mode="normal" in="SourceGraphic" in2="effect1_dropShadow_33506_2818" result="shape"/>
</filter>
<clipPath id="clip0_33506_2818">
<rect width="180" height="180" fill="white" transform="translate(50.5 46.5)"/>
</clipPath>
</defs>
</svg>
